<?xml version="1.0" encoding="UTF-8" standalone="no"?>
<svg
   xmlns:dc="http://purl.org/dc/elements/1.1/"
   xmlns:cc="http://creativecommons.org/ns#"
   xmlns:rdf="http://www.w3.org/1999/02/22-rdf-syntax-ns#"
   xmlns:svg="http://www.w3.org/2000/svg"
   xmlns="http://www.w3.org/2000/svg"
   viewBox="0 0 816 1056"
   height="1056"
   width="816"
   xml:space="preserve"
   id="svg2"
   version="1.1"><metadata
     id="metadata8"><rdf:RDF><cc:Work
         rdf:about=""><dc:format>image/svg+xml</dc:format><dc:type
           rdf:resource="http://purl.org/dc/dcmitype/StillImage" /></cc:Work></rdf:RDF></metadata><defs
     id="defs6"><clipPath
       id="clipPath18"
       clipPathUnits="userSpaceOnUse"><path
         id="path16"
         d="M 0,792 H 612 V 0 H 0 Z" /></clipPath></defs><g
     transform="matrix(1.3333333,0,0,-1.3333333,0,1056)"
     id="g10"><g
       id="g12"><g
         clip-path="url(#clipPath18)"
         id="g14"><g
           transform="translate(244.1332,479.1909)"
           id="g20"><path
             id="path22"
             style="fill:#ffffff;fill-opacity:1;fill-rule:nonzero;stroke:none"
             d="m 0,0 v 0.009 c -1.979,0 -3.959,-0.031 -5.937,0.014 -0.903,0.02 -1.466,-0.332 -1.68,-1.183 -0.208,-0.828 -0.418,-1.664 -0.513,-2.509 -0.628,-5.584 -0.614,-11.185 -0.35,-16.787 0.063,-1.342 0.291,-2.678 0.476,-4.012 0.103,-0.739 0.54,-1.04 1.318,-0.99 0.985,0.064 1.978,0.029 2.967,0.016 1.591,-0.02 1.607,-0.008 1.262,1.586 -0.042,0.193 -0.112,0.381 -0.14,0.576 -0.268,1.854 -0.674,3.702 -0.756,5.564 -0.11,2.477 1.644,3.979 4.114,3.753 0.424,-0.039 0.858,-0.108 1.256,-0.252 0.78,-0.282 1.182,0.038 1.398,0.755 0.35,1.166 0.701,2.332 1.054,3.497 0.247,0.815 -0.054,1.165 -0.902,1.178 -1.575,0.023 -3.059,-0.26 -4.499,-0.938 -2.102,-0.991 -2.616,-0.634 -2.641,1.681 -0.028,2.493 1.589,4.171 4.083,4.237 1.316,0.035 2.56,-0.204 3.645,-0.998 0.688,-0.503 1.177,-0.412 1.542,0.392 0.422,0.927 0.915,1.822 1.336,2.75 0.621,1.369 0.45,1.635 -1.096,1.655 C 3.958,0.019 1.979,0 0,0 m -25.364,-14.253 c 0.057,-0.003 0.114,-0.007 0.171,-0.01 0,-0.528 -0.025,-1.058 0.004,-1.584 0.147,-2.697 0.271,-5.395 0.479,-8.087 0.103,-1.326 0.41,-1.512 1.771,-1.503 0.924,0.006 1.849,0.015 2.772,-0.007 1.476,-0.036 1.416,-0.055 1.159,1.392 -0.379,2.136 -0.815,4.282 -0.936,6.439 -0.123,2.2 1.237,3.501 3.442,3.621 0.677,0.037 1.379,-0.088 2.045,-0.245 0.63,-0.148 1.013,-0.044 1.204,0.614 0.376,1.295 0.786,2.58 1.167,3.874 0.19,0.647 -0.129,0.979 -0.75,0.941 -1.015,-0.062 -2.048,-0.099 -3.032,-0.325 -0.92,-0.211 -1.777,-0.686 -2.682,-0.982 -0.578,-0.189 -1.261,-0.296 -1.463,0.511 -0.491,1.966 -0.135,4.625 2.399,5.502 1.857,0.643 3.654,0.353 5.273,-0.749 0.675,-0.459 1.082,-0.324 1.413,0.34 0.515,1.032 1.049,2.056 1.515,3.109 0.44,0.993 0.244,1.275 -0.857,1.388 -0.295,0.031 -0.594,0.022 -0.89,0.022 -3.301,10e-4 -6.601,10e-4 -9.901,10e-4 -2.987,0 -3.247,-0.23 -3.625,-3.21 -0.013,-0.098 -0.02,-0.197 -0.026,-0.296 -0.218,-3.585 -0.435,-7.17 -0.652,-10.756 m -52.527,-11.184 c 0.495,0 0.99,-0.002 1.485,0 1.361,0.007 1.5,0.157 1.331,1.49 -0.313,2.461 0.062,4.853 1.175,7.024 1.09,2.128 2.431,4.135 3.746,6.139 1.874,2.856 3.02,5.906 2.89,9.371 -0.034,0.875 -0.365,1.355 -1.309,1.337 -0.955,-0.018 -1.912,0.03 -2.869,0.049 -0.609,0.012 -0.9,-0.224 -0.846,-0.894 0.083,-1.048 0.228,-2.118 0.103,-3.149 -0.291,-2.386 -1.449,-4.421 -2.916,-6.283 -1.078,-1.369 -1.52,-1.379 -2.521,0.025 -1.882,2.64 -2.942,5.503 -2.283,8.818 0.212,1.062 -0.097,1.406 -1.171,1.426 -1.089,0.022 -2.179,0.012 -3.268,0.005 -1.121,-0.008 -1.493,-0.33 -1.555,-1.446 -0.122,-2.204 0.232,-4.334 1.063,-6.386 1.133,-2.801 2.965,-5.124 5.021,-7.277 0.759,-0.796 0.809,-1.527 0.373,-2.485 -0.891,-1.957 -1.607,-3.973 -1.508,-6.182 0.058,-1.29 0.33,-1.578 1.574,-1.581 0.495,-0.002 0.99,-0.001 1.485,-0.001 M -95.312,0.001 c -2.311,0 -4.622,-0.012 -6.933,0.006 -0.829,0.006 -1.179,-0.267 -0.87,-1.127 0.412,-1.145 0.752,-2.318 1.199,-3.449 0.429,-1.086 0.746,-1.146 1.644,-0.424 1.229,0.989 2.635,1.317 4.174,1.144 1.068,-0.12 1.487,-0.824 1.051,-1.809 -0.211,-0.478 -0.501,-0.927 -0.793,-1.363 -2.143,-3.201 -4.359,-6.354 -6.421,-9.606 -1.311,-2.069 -2.243,-4.344 -2.45,-6.829 -0.144,-1.745 0.162,-2.043 1.898,-2.046 4.457,-0.008 8.914,-0.002 13.371,0.004 0.395,0 0.793,0.025 1.185,0.073 0.558,0.069 0.861,0.348 0.634,0.945 -0.574,1.507 -1.169,3.007 -1.733,4.518 -0.333,0.89 -0.785,0.917 -1.441,0.305 -1.066,-0.995 -2.309,-1.671 -3.79,-1.724 -1.09,-0.04 -2.251,-0.015 -2.952,0.999 -0.676,0.978 -0.127,1.984 0.391,2.773 2.059,3.135 4.254,6.179 6.328,9.303 1.326,1.996 2.657,4.008 3.741,6.137 0.747,1.467 0.179,2.136 -1.498,2.161 -2.245,0.032 -4.49,0.008 -6.735,0.009 M 9.454,-14.618 c -0.1,0.039 -0.2,0.078 -0.301,0.117 -0.323,-0.389 -0.71,-0.742 -0.96,-1.173 -1.616,-2.792 -0.772,-6.644 1.873,-8.481 2.757,-1.915 5.819,-2.14 8.998,-1.462 4.777,1.018 7.467,6.622 5.241,10.954 -1.189,2.315 -3.361,3.448 -5.637,4.411 -1.57,0.665 -3.173,1.265 -4.702,2.015 -0.801,0.392 -1.249,1.181 -1.172,2.132 0.078,0.953 0.648,1.551 1.509,1.907 1.584,0.655 3.105,0.521 4.506,-0.451 0.615,-0.427 1.141,-0.986 1.695,-1.498 0.541,-0.499 1.069,-0.516 1.519,0.078 0.436,0.574 0.869,1.163 1.203,1.798 0.798,1.517 0.663,2.014 -0.779,2.926 -2.86,1.808 -5.976,2.25 -9.214,1.413 -2.436,-0.629 -4.117,-2.25 -4.751,-4.709 -0.653,-2.535 -0.341,-4.922 1.698,-6.831 1.455,-1.362 3.255,-2.075 5.091,-2.747 1.199,-0.439 2.437,-0.874 3.501,-1.556 1.739,-1.113 1.617,-3.28 -0.122,-4.282 -3.311,-1.909 -7.671,-0.124 -8.685,3.557 -0.173,0.627 -0.341,1.255 -0.511,1.882 m -37.168,4.452 c 0,1.485 0.091,2.976 -0.025,4.452 -0.12,1.537 -0.406,3.064 -0.688,4.583 -0.144,0.777 -0.665,1.126 -1.514,1.07 -0.885,-0.06 -1.779,0.024 -2.669,0.036 -0.935,0.013 -1.064,-0.211 -0.889,-1.118 0.436,-2.258 0.948,-4.512 1.194,-6.794 0.303,-2.819 0.365,-5.667 -0.337,-8.46 -0.368,-1.468 -0.932,-2.837 -2.375,-3.595 -2.006,-1.052 -4.057,-0.038 -5.013,2.479 -1.435,3.777 -1.095,7.664 -0.606,11.534 0.206,1.625 0.666,3.219 1.035,4.822 0.164,0.717 0.088,1.138 -0.814,1.094 -1.152,-0.057 -2.311,-0.058 -3.464,-0.002 -0.71,0.035 -1.043,-0.275 -1.171,-0.905 -0.183,-0.902 -0.405,-1.801 -0.517,-2.713 -0.589,-4.795 -0.846,-9.6 0.076,-14.379 0.511,-2.652 1.609,-5.056 3.97,-6.588 4.901,-3.179 11.089,-0.775 12.863,4.891 0.983,3.141 1.103,6.351 0.944,9.593 m -37.982,-4.898 c 0.05,-0.003 0.1,-0.006 0.15,-0.008 0,-1.023 -0.054,-2.049 0.012,-3.067 0.132,-2.036 0.298,-4.072 0.52,-6.1 0.072,-0.661 0.347,-1.276 1.237,-1.266 3.364,0.037 6.736,-0.09 10.089,0.106 4.461,0.26 6.771,3.933 5.421,8.218 -0.691,2.195 -2.178,3.797 -3.726,5.373 -1.008,1.025 -0.997,1 -0.096,2.053 0.683,0.797 1.416,1.581 1.939,2.48 1.467,2.519 1.13,6.54 -3.01,6.946 -3.398,0.333 -6.839,0.249 -10.261,0.277 -0.33,0.002 -0.847,-0.453 -0.963,-0.801 -0.331,-0.991 -0.637,-2.026 -0.708,-3.061 -0.256,-3.713 -0.411,-7.433 -0.604,-11.15 m -98.702,26.63 c -0.617,3.522 -0.461,6.909 0.175,10.256 0.296,1.558 0.962,3.048 1.498,4.556 0.254,0.715 0.063,1.217 -0.656,1.338 -0.366,0.061 -0.838,-0.122 -1.176,-0.333 -2.911,-1.818 -5.813,-3.65 -8.691,-5.52 -0.721,-0.469 -1.097,-1.112 -0.779,-2.094 0.374,-1.156 0.532,-2.38 0.836,-3.561 0.855,-3.319 1.701,-6.64 2.617,-9.943 1.128,-4.065 2.238,-8.139 3.514,-12.158 1.092,-3.442 2.419,-6.809 3.62,-10.216 1.034,-2.934 2.344,-5.716 4.118,-8.29 0.77,-1.12 1.746,-1.478 3.01,-1.476 9.043,0.01 18.087,0.005 27.131,0.005 2.146,0 3.194,1.012 3.241,3.17 0.026,1.174 0.005,2.349 0.005,3.574 0.538,0.145 0.684,-0.116 0.73,-0.713 0.108,-1.406 0.24,-2.818 0.498,-4.203 0.172,-0.919 0.781,-1.444 1.843,-1.415 1.249,0.035 2.502,-0.091 3.754,-0.119 1.036,-0.024 2.073,-0.005 3.224,-0.005 -0.709,2.457 -1.527,4.559 -3.614,5.85 -0.71,0.44 -0.764,1.002 -0.277,1.532 0.518,0.565 1.117,1.25 1.8,1.429 1.606,0.422 3.279,0.753 4.933,0.79 2.046,0.045 2.799,-0.935 2.279,-2.925 -0.462,-1.766 -1.207,-3.463 -1.899,-5.161 -0.452,-1.109 -0.264,-1.433 0.934,-1.392 1.021,0.034 2.046,0.032 3.068,0.012 1.565,-0.031 2.095,0.349 2.274,1.895 0.57,4.922 0.552,9.818 -0.983,14.593 -1.091,3.393 -2.837,6.376 -5.756,8.544 -1.488,1.105 -2.046,1.105 -3.539,0.036 -3.38,-2.42 -5.617,-5.707 -7.068,-9.546 -0.528,-1.398 -0.868,-2.868 -1.291,-4.298 -2.379,0.286 -2.318,0.375 -3.094,1.982 -0.953,1.974 -1.994,3.931 -3.231,5.734 -1.13,1.646 -2.544,2.069 -4.303,0.753 -1.201,-0.898 -2.239,-2.065 -3.181,-3.246 -1.082,-1.357 -1.597,-1.643 -3.138,-0.949 -0.773,0.348 -1.564,0.764 -2.181,1.331 -2.284,2.096 -4.235,4.406 -4.578,7.695 -0.06,0.574 -0.433,1.197 -0.836,1.637 -0.767,0.837 -1.661,1.558 -2.605,2.421 0.534,0.067 1.031,0.183 1.528,0.182 1.543,-0.004 1.996,0.637 1.504,2.117 -0.374,1.123 -0.65,2.28 -1.047,3.394 -0.174,0.488 -0.45,1.016 -0.836,1.339 -1.287,1.079 -2.769,1.947 -3.947,3.126 -2.068,2.07 -4.482,2.412 -6.815,0.636 -0.884,-0.673 -1.658,-1.492 -2.613,-2.364 m -60.016,50.536 H 77.492 V -88.851 h -301.906 z" /></g><g
           transform="translate(170.1713,416.2252)"
           id="g24"><path
             id="path26"
             style="fill:#111212;fill-opacity:1;fill-rule:nonzero;stroke:none"
             d="M 0,0 C 0.271,1.579 -4.806,6.497 -7.51,6.987 -4.986,4.639 -2.476,2.304 0,0 m -9.312,8.43 c 0.097,0.121 0.195,0.241 0.293,0.361 -0.414,0.522 -0.795,1.076 -1.25,1.56 -0.899,0.954 -2.019,1.752 -2.717,2.829 -0.913,1.407 -1.825,1.461 -3.093,0.576 0.49,-1.645 0.979,-3.288 1.441,-4.84 1.873,-0.171 3.599,-0.328 5.326,-0.486 M 11.761,22.218 C 11.041,25.921 9.618,29.292 6.78,31.894 6.411,32.232 5.347,32.322 4.951,32.04 0.893,29.147 -1.461,25.112 -2.573,20.308 -2.818,19.25 -2.249,18.891 -1.293,19 c 3.796,0.431 7.59,0.875 11.384,1.319 1.105,0.129 1.726,0.693 1.67,1.899 m -68.775,26.76 c -0.71,2.365 -1.284,4.573 -2.055,6.709 -0.35,0.973 -0.921,1.997 -1.683,2.666 -2.43,2.129 -5.041,4.049 -7.497,6.15 -2.339,2.001 -5.167,2.37 -7.799,0.635 -1.364,-0.9 -2.494,-2.149 -3.809,-3.133 -1.914,-1.433 -2.489,-3.374 -1.993,-5.547 0.653,-2.864 1.566,-5.669 2.353,-8.503 2.081,-7.496 5.315,-14.445 10.311,-20.429 5.293,-6.339 11.775,-10.531 20.465,-10.207 3.232,0.121 6.496,-0.047 9.034,-2.326 1.474,-1.324 2.707,-2.532 4.764,-1.305 0.031,0.019 0.147,-0.104 0.217,-0.157 -2.003,-2.598 -2.003,-2.598 -0.329,-3.633 0.694,0.987 1.605,1.912 1.978,3.018 0.123,0.368 -1.11,1.231 -1.77,1.816 -2.933,2.597 -5.118,6.16 -9.292,7.169 -0.552,0.133 -1.051,0.523 -1.549,0.835 -5.281,3.31 -8.417,8.284 -10.741,13.882 -0.105,0.253 -0.158,0.551 -0.146,0.824 0.147,3.506 -3.871,7.538 -7.43,7.537 -0.689,-10e-4 -1.415,0.319 -2.058,0.627 -0.581,0.277 -1.024,0.859 -1.612,1.102 -1.96,0.812 -3.448,1.987 -3.808,4.29 0.775,0.5 1.225,0.744 1.993,-0.267 0.774,-1.017 2.079,-2.221 3.199,-2.27 3.034,-0.134 6.093,0.3 9.257,0.517 M -82.77,61.816 c 1.707,1.558 3.09,3.02 4.67,4.223 4.168,3.173 8.481,2.563 12.176,-1.136 2.105,-2.106 4.754,-3.659 7.054,-5.586 0.689,-0.577 1.182,-1.52 1.493,-2.393 0.709,-1.991 1.203,-4.057 1.87,-6.064 0.88,-2.644 0.07,-3.79 -2.688,-3.784 -0.887,0.002 -1.775,-0.205 -2.729,-0.324 1.687,-1.542 3.284,-2.831 4.654,-4.327 0.721,-0.786 1.387,-1.898 1.494,-2.924 0.613,-5.876 4.1,-10.004 8.181,-13.75 1.102,-1.012 2.516,-1.756 3.897,-2.379 2.754,-1.24 3.674,-0.728 5.607,1.697 1.683,2.11 3.538,4.194 5.683,5.8 3.144,2.352 5.67,1.596 7.689,-1.347 2.211,-3.221 4.07,-6.718 5.774,-10.244 1.387,-2.871 1.278,-3.031 5.528,-3.543 0.757,2.557 1.364,5.182 2.308,7.68 2.592,6.861 6.589,12.734 12.629,17.059 2.667,1.909 3.665,1.909 6.323,-0.065 5.215,-3.875 8.335,-9.205 10.285,-15.267 2.744,-8.533 2.775,-17.281 1.756,-26.076 -0.32,-2.763 -1.267,-3.441 -4.063,-3.385 -1.826,0.036 -3.656,0.039 -5.482,-0.023 -2.14,-0.072 -2.475,0.506 -1.668,2.487 1.236,3.035 2.568,6.067 3.393,9.222 0.93,3.557 -0.416,5.308 -4.073,5.227 C 6.036,12.529 3.047,11.937 0.177,11.183 -1.043,10.863 -2.114,9.638 -3.04,8.63 -3.91,7.682 -3.813,6.678 -2.545,5.893 1.185,3.584 2.646,-0.17 3.913,-4.561 c -2.056,0 -3.909,-0.033 -5.76,0.008 -2.237,0.05 -4.476,0.276 -6.708,0.214 -1.898,-0.053 -2.987,0.886 -3.293,2.528 -0.462,2.474 -0.698,4.997 -0.891,7.51 -0.082,1.066 -0.341,1.533 -1.304,1.275 0,-2.189 0.038,-4.289 -0.008,-6.386 -0.085,-3.858 -1.957,-5.665 -5.793,-5.665 -16.159,0 -32.319,0.009 -48.478,-0.01 -2.258,-0.002 -4.001,0.638 -5.379,2.638 -3.168,4.6 -5.509,9.571 -7.357,14.813 -2.146,6.089 -4.517,12.104 -6.469,18.254 -2.28,7.183 -4.264,14.461 -6.279,21.726 -1.636,5.9 -3.149,11.835 -4.676,17.765 -0.544,2.11 -0.825,4.297 -1.494,6.363 -0.568,1.755 0.104,2.904 1.392,3.741 5.142,3.342 10.329,6.616 15.531,9.865 0.603,0.377 1.446,0.703 2.101,0.594 1.284,-0.215 1.626,-1.113 1.172,-2.391 -0.958,-2.694 -2.149,-5.357 -2.678,-8.141 -1.136,-5.98 -1.414,-12.032 -0.312,-18.324" /></g><g
           transform="translate(272.0154,441.0304)"
           id="g28"><path
             id="path30"
             style="fill:#111212;fill-opacity:1;fill-rule:nonzero;stroke:none"
             d="m 0,0 c 0.064,-0.012 0.127,-0.023 0.191,-0.034 -0.02,-0.235 -0.05,-0.47 -0.059,-0.705 -0.101,-2.631 0.899,-3.305 3.18,-1.95 1.813,1.077 3.623,2.248 5.163,3.671 1.26,1.165 2.307,2.664 3.106,4.194 0.867,1.658 0.245,3.365 -1.453,3.929 C 6.904,10.177 2.409,9.756 1.041,5.521 0.47,3.753 0.334,1.845 0,0 m 0.317,-14.198 c 0.262,-1.441 0.477,-2.893 0.797,-4.32 0.42,-1.875 1.662,-3.105 3.541,-3.18 2.031,-0.081 4.174,-0.078 6.096,0.481 3.155,0.918 4.325,3.746 3.287,6.903 -0.852,2.594 -2.411,4.73 -4.518,6.397 -0.536,0.424 -1.681,0.508 -2.35,0.246 -1.469,-0.574 -2.772,-1.562 -4.219,-2.208 -1.918,-0.857 -2.967,-2.093 -2.634,-4.319 m -8.565,3.624 c 0.344,6.642 0.621,13.289 1.078,19.923 0.127,1.849 0.674,3.7 1.266,5.47 0.207,0.621 1.13,1.435 1.721,1.43 6.114,-0.049 12.262,0.102 18.334,-0.494 7.398,-0.726 8,-7.91 5.379,-12.411 -0.935,-1.607 -2.246,-3.007 -3.466,-4.432 -1.61,-1.881 -1.629,-1.837 0.172,-3.668 2.767,-2.816 5.424,-5.678 6.659,-9.6 2.411,-7.657 -1.717,-14.22 -9.687,-14.686 -5.992,-0.35 -12.018,-0.122 -18.028,-0.188 -1.59,-0.017 -2.082,1.081 -2.211,2.261 -0.396,3.624 -0.692,7.262 -0.929,10.9 -0.118,1.82 -0.02,3.653 -0.02,5.481 -0.09,0.004 -0.179,0.009 -0.268,0.014" /></g><g
           transform="translate(331.6347,439.2086)"
           id="g32"><path
             id="path34"
             style="fill:#111212;fill-opacity:1;fill-rule:nonzero;stroke:none"
             d="m 0,0 c 0.283,-5.794 0.069,-11.528 -1.688,-17.141 -3.169,-10.125 -14.226,-14.42 -22.984,-8.739 -4.218,2.737 -6.18,7.032 -7.094,11.771 -1.646,8.54 -1.186,17.126 -0.135,25.694 0.2,1.629 0.597,3.234 0.925,4.846 0.229,1.127 0.823,1.681 2.092,1.618 2.059,-0.101 4.13,-0.098 6.189,0.003 1.612,0.08 1.748,-0.674 1.454,-1.954 -0.659,-2.864 -1.481,-5.712 -1.848,-8.616 -0.875,-6.916 -1.482,-13.861 1.081,-20.609 1.709,-4.498 5.374,-6.311 8.959,-4.43 2.579,1.353 3.585,3.799 4.243,6.422 1.254,4.992 1.143,10.08 0.602,15.118 -0.439,4.077 -1.354,8.105 -2.133,12.14 -0.313,1.62 -0.082,2.02 1.589,1.998 1.59,-0.022 3.187,-0.172 4.768,-0.066 1.517,0.102 2.449,-0.523 2.706,-1.912 C -0.77,13.43 -0.26,10.701 -0.045,7.955 0.162,5.318 0,2.653 0,0" /></g><g
           transform="translate(398.0487,431.2539)"
           id="g36"><path
             id="path38"
             style="fill:#111212;fill-opacity:1;fill-rule:nonzero;stroke:none"
             d="m 0,0 c 0.304,-1.121 0.603,-2.243 0.912,-3.363 1.812,-6.578 9.603,-9.767 15.519,-6.356 3.106,1.791 3.325,5.662 0.217,7.652 -1.901,1.217 -4.112,1.994 -6.254,2.779 -3.281,1.202 -6.497,2.474 -9.098,4.909 -3.644,3.411 -4.2,7.677 -3.033,12.206 1.132,4.395 4.135,7.29 8.489,8.415 5.785,1.494 11.353,0.705 16.464,-2.526 2.577,-1.63 2.818,-2.517 1.391,-5.228 -0.597,-1.135 -1.37,-2.187 -2.148,-3.213 -0.806,-1.061 -1.748,-1.031 -2.715,-0.138 -0.991,0.914 -1.93,1.913 -3.029,2.676 -2.503,1.737 -5.222,1.976 -8.052,0.805 -1.538,-0.635 -2.557,-1.705 -2.695,-3.406 -0.138,-1.7 0.662,-3.11 2.094,-3.811 2.732,-1.339 5.595,-2.412 8.401,-3.6 4.067,-1.722 7.948,-3.746 10.072,-7.881 3.977,-7.742 -0.829,-17.755 -9.365,-19.575 -5.679,-1.21 -11.151,-0.809 -16.077,2.613 -4.726,3.283 -6.235,10.167 -3.348,15.154 0.447,0.772 1.139,1.401 1.717,2.096 C -0.359,0.138 -0.179,0.069 0,0" /></g><g
           transform="translate(210.8471,457.3737)"
           id="g40"><path
             id="path42"
             style="fill:#111212;fill-opacity:1;fill-rule:nonzero;stroke:none"
             d="m 0,0 c 4.011,-0.001 8.024,0.043 12.034,-0.015 2.997,-0.043 4.012,-1.24 2.678,-3.861 C 12.775,-7.68 10.395,-11.275 8.027,-14.841 4.32,-20.424 0.398,-25.864 -3.28,-31.464 c -0.927,-1.411 -1.908,-3.209 -0.7,-4.956 1.253,-1.812 3.329,-1.856 5.276,-1.786 2.646,0.097 4.867,1.305 6.771,3.082 1.173,1.094 1.981,1.045 2.575,-0.546 1.008,-2.699 2.072,-5.378 3.097,-8.072 0.405,-1.067 -0.135,-1.566 -1.133,-1.688 -0.7,-0.086 -1.41,-0.13 -2.116,-0.131 -7.964,-0.011 -15.928,-0.022 -23.892,-0.007 -3.104,0.006 -3.65,0.538 -3.392,3.655 0.369,4.44 2.035,8.506 4.378,12.202 3.683,5.811 7.644,11.446 11.473,17.165 0.522,0.78 1.04,1.581 1.417,2.435 0.78,1.761 0.031,3.02 -1.879,3.234 -2.75,0.308 -5.262,-0.278 -7.457,-2.044 -1.605,-1.292 -2.171,-1.184 -2.938,0.756 -0.799,2.021 -1.406,4.117 -2.142,6.164 -0.553,1.537 0.072,2.024 1.554,2.013 C -8.259,-0.02 -4.129,0.001 0,0" /></g><g
           transform="translate(241.9763,411.9221)"
           id="g44"><path
             id="path46"
             style="fill:#111212;fill-opacity:1;fill-rule:nonzero;stroke:none"
             d="m 0,0 c -0.885,0 -1.769,-0.002 -2.654,0.001 -2.223,0.006 -2.708,0.519 -2.812,2.825 -0.177,3.948 1.101,7.55 2.694,11.047 0.779,1.712 0.69,3.018 -0.667,4.44 -3.673,3.847 -6.946,7.998 -8.971,13.002 -1.485,3.667 -2.118,7.473 -1.9,11.411 0.11,1.995 0.776,2.569 2.779,2.584 1.946,0.014 3.893,0.03 5.839,-0.008 1.919,-0.037 2.471,-0.65 2.093,-2.549 -1.178,-5.923 0.716,-11.039 4.079,-15.755 1.79,-2.51 2.579,-2.493 4.505,-0.046 2.621,3.328 4.691,6.963 5.21,11.228 0.224,1.841 -0.035,3.754 -0.184,5.625 -0.095,1.198 0.423,1.62 1.512,1.598 1.709,-0.033 3.419,-0.119 5.127,-0.087 1.686,0.032 2.279,-0.825 2.337,-2.389 C 19.221,36.736 17.173,31.285 13.825,26.183 11.474,22.601 9.078,19.016 7.13,15.213 5.142,11.333 4.471,7.058 5.031,2.661 5.334,0.28 5.084,0.011 2.654,0 1.769,-0.004 0.885,0 0,0" /></g><g
           transform="translate(335.8326,431.9061)"
           id="g48"><path
             id="path50"
             style="fill:#111212;fill-opacity:1;fill-rule:nonzero;stroke:none"
             d="m 0,0 c 0.388,6.407 0.777,12.813 1.166,19.22 0.01,0.176 0.024,0.353 0.046,0.528 0.676,5.325 1.141,5.736 6.477,5.736 5.897,-0.001 11.794,0 17.692,-0.002 0.53,0 1.064,0.015 1.59,-0.039 1.968,-0.202 2.317,-0.706 1.532,-2.481 C 27.67,21.08 26.715,19.251 25.796,17.407 25.204,16.221 24.476,15.98 23.271,16.8 20.378,18.768 17.166,19.287 13.848,18.138 9.322,16.571 8.685,11.819 9.563,8.307 c 0.36,-1.442 1.58,-1.252 2.613,-0.914 1.617,0.53 3.148,1.378 4.793,1.755 1.759,0.403 3.604,0.47 5.417,0.58 1.111,0.068 1.679,-0.525 1.34,-1.68 C 23.046,5.736 22.314,3.439 21.642,1.125 21.3,-0.051 20.616,-0.237 19.49,0.029 18.3,0.309 17.045,0.531 15.836,0.466 11.895,0.251 9.466,-2.073 9.686,-6.003 c 0.215,-3.856 0.995,-7.69 1.672,-11.507 0.459,-2.585 0.567,-2.552 -2.071,-2.487 -1.65,0.04 -3.302,0.023 -4.953,0.013 C 1.903,-20 1.354,-19.668 1.17,-17.3 0.798,-12.49 0.576,-7.668 0.314,-2.849 0.262,-1.908 0.306,-0.963 0.306,-0.019 0.204,-0.013 0.102,-0.006 0,0" /></g><g
           transform="translate(381.155,457.3735)"
           id="g52"><path
             id="path54"
             style="fill:#111212;fill-opacity:1;fill-rule:nonzero;stroke:none"
             d="m 0,0 c 3.536,0 7.073,0.034 10.608,-0.011 2.763,-0.035 3.068,-0.511 1.958,-2.958 -0.752,-1.657 -1.632,-3.256 -2.386,-4.913 -0.653,-1.437 -1.527,-1.6 -2.756,-0.701 -1.938,1.419 -4.162,1.846 -6.512,1.784 -4.456,-0.117 -7.347,-3.117 -7.297,-7.571 0.046,-4.135 0.964,-4.775 4.72,-3.004 2.573,1.213 5.225,1.717 8.038,1.676 1.516,-0.022 2.054,-0.649 1.612,-2.104 -0.631,-2.082 -1.257,-4.166 -1.883,-6.249 -0.385,-1.28 -1.104,-1.852 -2.498,-1.348 -0.711,0.257 -1.487,0.38 -2.245,0.449 -4.412,0.403 -7.546,-2.279 -7.35,-6.706 0.147,-3.328 0.872,-6.63 1.35,-9.942 0.05,-0.347 0.176,-0.684 0.25,-1.029 0.616,-2.848 0.589,-2.869 -2.254,-2.833 -1.768,0.022 -3.542,0.085 -5.302,-0.029 -1.389,-0.09 -2.171,0.449 -2.355,1.768 -0.331,2.384 -0.738,4.771 -0.851,7.169 -0.472,10.01 -0.497,20.019 0.626,29.996 0.17,1.51 0.545,3.004 0.917,4.483 0.382,1.52 1.387,2.15 3.002,2.113 C -7.074,-0.039 -3.536,0.016 0,0.016 Z" /></g><g
           transform="translate(97.1797,473.6575)"
           id="g56"><path
             id="path58"
             style="fill:#b68f32;fill-opacity:1;fill-rule:nonzero;stroke:none"
             d="M 0,0 C 0.153,2.203 -0.079,2.319 -2,2.245 -3.105,2.202 -4.233,2.631 -5.341,2.893 -5.841,3.011 -6.316,3.24 -6.982,3.484 -6.128,0.113 -3.287,-1.207 0,0 M 15.977,-8.454 C 12.814,-8.671 9.754,-9.106 6.72,-8.971 c -1.119,0.049 -2.425,1.253 -3.198,2.27 -0.768,1.01 -1.218,0.767 -1.993,0.266 0.36,-2.302 1.848,-3.477 3.808,-4.289 0.588,-0.244 1.031,-0.825 1.612,-1.103 0.643,-0.308 1.368,-0.627 2.058,-0.627 3.559,0.002 7.576,-4.03 7.429,-7.536 -0.011,-0.273 0.042,-0.572 0.146,-0.824 2.325,-5.598 5.46,-10.573 10.741,-13.882 0.499,-0.312 0.998,-0.702 1.55,-0.836 4.174,-1.009 6.359,-4.571 9.291,-7.169 0.66,-0.584 1.894,-1.448 1.77,-1.815 -0.372,-1.106 -1.283,-2.031 -1.978,-3.019 -1.673,1.036 -1.673,1.036 0.33,3.634 -0.071,0.052 -0.186,0.175 -0.218,0.157 -2.057,-1.227 -3.289,-0.019 -4.763,1.305 -2.538,2.279 -5.803,2.447 -9.034,2.326 -8.69,-0.325 -15.173,3.868 -20.465,10.206 -4.996,5.985 -8.23,12.934 -10.311,20.429 -0.787,2.835 -1.701,5.639 -2.354,8.504 -0.495,2.173 0.08,4.114 1.994,5.546 1.315,0.985 2.444,2.233 3.809,3.133 2.632,1.736 5.46,1.367 7.799,-0.634 C 7.199,4.97 9.81,3.049 12.239,0.92 c 0.763,-0.668 1.333,-1.693 1.684,-2.665 0.77,-2.137 1.344,-4.344 2.054,-6.709" /></g><g
           transform="translate(181.9324,438.443)"
           id="g60"><path
             id="path62"
             style="fill:#ffffff;fill-opacity:1;fill-rule:nonzero;stroke:none"
             d="m 0,0 c 0.056,-1.205 -0.566,-1.769 -1.671,-1.899 -3.794,-0.444 -7.588,-0.888 -11.383,-1.319 -0.956,-0.108 -1.525,0.25 -1.28,1.308 1.111,4.805 3.466,8.839 7.524,11.732 0.396,0.282 1.46,0.192 1.829,-0.146 C -2.143,7.074 -0.72,3.704 0,0" /></g><g
           transform="translate(160.8589,424.6556)"
           id="g64"><path
             id="path66"
             style="fill:#b68f32;fill-opacity:1;fill-rule:nonzero;stroke:none"
             d="M 0,0 C -1.726,0.157 -3.453,0.315 -5.325,0.485 -5.788,2.038 -6.277,3.68 -6.766,5.325 -5.499,6.211 -4.587,6.157 -3.674,4.75 -2.975,3.673 -1.855,2.875 -0.957,1.92 -0.501,1.437 -0.121,0.883 0.293,0.361 0.196,0.24 0.098,0.12 0,0" /></g><g
           transform="translate(170.1713,416.2252)"
           id="g68"><path
             id="path70"
             style="fill:#b68f32;fill-opacity:1;fill-rule:nonzero;stroke:none"
             d="M 0,0 C -2.476,2.304 -4.986,4.639 -7.51,6.987 -4.806,6.497 0.271,1.579 0,0" /></g><g
           transform="translate(272.3329,426.8322)"
           id="g72"><path
             id="path74"
             style="fill:#ffffff;fill-opacity:1;fill-rule:nonzero;stroke:none"
             d="M 0,0 C -0.333,2.226 0.716,3.462 2.633,4.319 4.081,4.965 5.383,5.953 6.852,6.527 7.522,6.789 8.667,6.705 9.203,6.281 11.31,4.615 12.868,2.478 13.721,-0.116 14.759,-3.273 13.589,-6.101 10.433,-7.019 8.512,-7.578 6.368,-7.58 4.338,-7.5 2.459,-7.425 1.217,-6.195 0.797,-4.32 0.477,-2.892 0.262,-1.441 0,0" /></g><g
           transform="translate(272.0154,441.0304)"
           id="g76"><path
             id="path78"
             style="fill:#ffffff;fill-opacity:1;fill-rule:nonzero;stroke:none"
             d="m 0,0 c 0.334,1.845 0.47,3.753 1.041,5.521 1.368,4.235 5.863,4.656 9.087,3.584 1.698,-0.564 2.32,-2.271 1.453,-3.929 C 10.782,3.646 9.735,2.147 8.475,0.982 6.935,-0.441 5.125,-1.612 3.312,-2.689 1.031,-4.044 0.031,-3.37 0.132,-0.739 0.141,-0.504 0.171,-0.269 0.191,-0.034 0.127,-0.023 0.064,-0.012 0,0" /></g><g
           transform="translate(97.1797,473.6575)"
           id="g80"><path
             id="path82"
             style="fill:#ffffff;fill-opacity:1;fill-rule:nonzero;stroke:none"
             d="M 0,0 C -3.287,-1.207 -6.128,0.113 -6.982,3.484 -6.316,3.24 -5.841,3.011 -5.341,2.893 -4.233,2.631 -3.105,2.202 -2,2.245 -0.079,2.319 0.153,2.203 0,0" /></g></g></g></g></svg>