<svg xmlns="http://www.w3.org/2000/svg" xmlns:xlink="http://www.w3.org/1999/xlink" width="420" height="226" viewBox="0 0 420 226"><path fill="#021509" d="M220.418 215.484c-90.737 0-164.295-36.51-164.295-81.547 0-45.038 73.56-81.548 164.295-81.548 90.738 0 164.295 36.51 164.295 81.547 0 45.038-73.557 81.547-164.295 81.547m0-167.892c-100.564 0-182.09 38.658-182.09 86.345 0 47.686 81.526 86.343 182.09 86.343 100.566 0 182.09-38.657 182.09-86.343 0-47.687-81.524-86.345-182.09-86.345"/><path fill="none" stroke="#021509" stroke-width=".663" stroke-linecap="round" stroke-linejoin="round" stroke-miterlimit="10" d="M220.418 215.484c-90.737 0-164.295-36.51-164.295-81.547 0-45.038 73.56-81.548 164.295-81.548 90.738 0 164.295 36.51 164.295 81.547 0 45.038-73.557 81.547-164.295 81.547zm0-167.892c-100.564 0-182.09 38.658-182.09 86.345 0 47.686 81.526 86.343 182.09 86.343 100.566 0 182.09-38.657 182.09-86.343 0-47.687-81.524-86.345-182.09-86.345z"/><path fill="#021509" d="M160.27 184.55l3.24-6.142c.028-.076.052-.158.077-.244.03-.09.04-.158.04-.21l3.202-6.143-.038.037c.152-.35.295-.67.434-.958.14-.29.27-.61.395-.964h-.15c-1.28 1.005-2.565 2.004-3.862 2.996-1.293.99-2.58 1.98-3.86 2.956h.036c-.125.154-.266.322-.414.51-.152.19-.303.372-.453.548l-2 1.09c.303.53.6 1.06.89 1.585.286.53.595 1.058.92 1.583l1.058 2.79.486.567zm-15.487 1.243c.426-.2.88-.434 1.355-.697.477-.264.93-.497 1.357-.7l-.037.04c.426-.4.86-.803 1.3-1.204.44-.403.874-.793 1.3-1.168l.87-.49v.038c.4-.353.825-.736 1.278-1.15s.88-.8 1.283-1.152l.563-.337c.05-.052.14-.142.264-.282.125-.136.213-.23.264-.28v-.304l-.282-.282c-.137-.138-.244-.246-.322-.322-.8-.375-1.65-.776-2.54-1.203-.894-.43-1.74-.843-2.546-1.244h.037c-.578-.052-1.137-.1-1.676-.15-.54-.052-1.085-.1-1.638-.153-.703.277-1.408.572-2.11.884-.706.315-1.42.61-2.15.888l-.792 1.357c.053.402.096.824.135 1.264.037.438.068.86.092 1.262.102.303.21.66.322 1.074.11.414.22.77.317 1.074h-.035c.426.5.848 1.005 1.262 1.508.414.502.834 1.004 1.262 1.508v-.04l.867.26zm12.022 6.03l.53-1.206c.05-.3.11-.66.187-1.074.074-.416.156-.842.246-1.28.086-.44.168-.867.244-1.28.076-.418.14-.775.19-1.076-.128-.652-.26-1.356-.397-2.11-.14-.753-.27-1.455-.396-2.11-.177-.303-.358-.598-.546-.886-.19-.286-.373-.58-.55-.885-.124-.127-.255-.264-.394-.416-.14-.15-.27-.286-.396-.413-.502.3-.992.61-1.47.925-.478.313-.954.618-1.43.92-.228.253-.44.496-.644.733-.2.242-.402.475-.602.697l-4.447 3.584c.126.05.25.094.376.133.125.034.254.08.38.128h1.542c.377-.2.787-.41 1.23-.62.437-.214.856-.423 1.26-.624.05-.178.075-.344.075-.51 0-.16.025-.317.076-.47h.64l1.357 1.17-.717 1.77-1.357.188h.04c-.153.1-.315.196-.493.284-.174.09-.338.18-.488.282l-2.11.415h-.528c-.277.05-.57.106-.885.17s-.612.12-.89.17l-2.295-.34c-.504.276-1.002.546-1.49.81-.492.262-.975.533-1.45.81-.077.05-.165.12-.265.208-.102.09-.2.16-.3.208l-.38.19c-.1.123-.22.23-.357.317-.137.088-.27.197-.396.32l-.867.34c-.3.15-.627.316-.98.49-.353.176-.665.338-.94.49l-3.996.34-1.922.075-.715-.415c-.176-.05-.37-.117-.584-.21-.215-.087-.41-.153-.585-.206l-1.658-.79-.075-1.018 1.507-1.17h1.245l-.453.755c.024.075.037.17.037.282 0 .11.015.206.04.282.05.05.137.113.265.188.124.073.212.138.263.187h4.71c.503-.125 1.022-.262 1.563-.412.542-.152 1.064-.29 1.567-.416.803-.43 1.61-.854 2.43-1.28.816-.428 1.625-.855 2.43-1.282-.4-.353-.816-.712-1.244-1.075-.426-.363-.828-.748-1.203-1.15l-1.02-1.432-.904-1.845-.34-3.053.83-2.41 1.47-1.133 3.618-1.736h4.146l2.297.79 3.432 1.624 2.372 1.546c.377-.2.758-.42 1.148-.66.39-.238.773-.46 1.15-.66.1-.102.164-.176.188-.226l10.365-8.366h-.037c.25-.428.496-.843.734-1.244.238-.4.46-.805.66-1.207l.602-.64 5.164-4.483.754-.492h1.584l.074.906-.68.604h.04l-3.32 3.39c-.2.352-.4.723-.6 1.114-.204.392-.378.758-.526 1.11l-1.096 1.205c-.148.432-.307.856-.47 1.283-.165.428-.32.855-.472 1.28l-1.77 2.638c-.075.18-.155.353-.245.528-.09.177-.16.353-.208.53l-6.068 9.87c-.127.378-.258.76-.398 1.15-.137.39-.27.76-.395 1.112l-1.28 2.64c-.05.175-.11.343-.188.507-.074.167-.137.32-.19.473l-.3.417c-.023.15-.037.313-.037.486 0 .18-.014.328-.04.453l-.638 1.206c-.05.2-.107.44-.17.717-.063.274-.12.513-.17.715l-.754.828h-.94l-.718-.564-.19-2.108z"/><path fill="none" stroke="#021509" stroke-width=".663" stroke-linecap="round" stroke-linejoin="round" stroke-miterlimit="10" d="M160.27 184.55l3.24-6.142c.028-.076.052-.158.077-.244.03-.09.04-.158.04-.21l3.202-6.143-.038.037c.152-.35.295-.67.434-.958.14-.29.27-.61.395-.964h-.15c-1.28 1.005-2.565 2.004-3.862 2.996-1.293.99-2.58 1.98-3.86 2.956h.036c-.125.154-.266.322-.414.51-.152.19-.303.372-.453.548l-2 1.09c.303.53.6 1.06.89 1.585.286.53.595 1.058.92 1.583l1.058 2.79.486.567zm-15.487 1.243c.426-.2.88-.434 1.355-.697.477-.264.93-.497 1.357-.7l-.037.04c.426-.4.86-.803 1.3-1.204.44-.403.874-.793 1.3-1.168l.87-.49v.038c.4-.353.825-.736 1.278-1.15s.88-.8 1.283-1.152l.563-.337c.05-.052.14-.142.264-.282.125-.136.213-.23.264-.28v-.304l-.282-.282c-.137-.138-.244-.246-.322-.322-.8-.375-1.65-.776-2.54-1.203-.894-.43-1.74-.843-2.546-1.244h.037c-.578-.052-1.137-.1-1.676-.15-.54-.052-1.085-.1-1.638-.153-.703.277-1.408.572-2.11.884-.706.315-1.42.61-2.15.888l-.792 1.357c.053.402.096.824.135 1.264.037.438.068.86.092 1.262.102.303.21.66.322 1.074.11.414.22.77.317 1.074h-.035c.426.5.848 1.005 1.262 1.508.414.502.834 1.004 1.262 1.508v-.04l.867.26zm12.022 6.03l.53-1.206c.05-.3.11-.66.187-1.074.074-.416.156-.842.246-1.28.086-.44.168-.867.244-1.28.076-.418.14-.775.19-1.076-.128-.652-.26-1.356-.397-2.11-.14-.753-.27-1.455-.396-2.11-.177-.303-.358-.598-.546-.886-.19-.286-.373-.58-.55-.885-.124-.127-.255-.264-.394-.416-.14-.15-.27-.286-.396-.413-.502.3-.992.61-1.47.925-.478.313-.954.618-1.43.92-.228.253-.44.496-.644.733-.2.242-.402.475-.602.697l-4.447 3.584c.126.05.25.094.376.133.125.034.254.08.38.128h1.542c.377-.2.787-.41 1.23-.62.437-.214.856-.423 1.26-.624.05-.178.075-.344.075-.51 0-.16.025-.317.076-.47h.64l1.357 1.17-.717 1.77-1.357.188h.04c-.153.1-.315.196-.493.284-.174.09-.338.18-.488.282l-2.11.415h-.528c-.277.05-.57.106-.885.17s-.612.12-.89.17l-2.295-.34c-.504.276-1.002.546-1.49.81-.492.262-.975.533-1.45.81-.077.05-.165.12-.265.208-.102.09-.2.16-.3.208l-.38.19c-.1.123-.22.23-.357.317-.137.088-.27.197-.396.32l-.867.34c-.3.15-.627.316-.98.49-.353.176-.665.338-.94.49l-3.996.34-1.922.075-.715-.415c-.176-.05-.37-.117-.584-.21-.215-.087-.41-.153-.585-.206l-1.658-.79-.075-1.018 1.507-1.17h1.245l-.453.755c.024.075.037.17.037.282 0 .11.015.206.04.282.05.05.137.113.265.188.124.073.212.138.263.187h4.71c.503-.125 1.022-.262 1.563-.412.542-.152 1.064-.29 1.567-.416.803-.43 1.61-.854 2.43-1.28.816-.428 1.625-.855 2.43-1.282-.4-.353-.816-.712-1.244-1.075-.426-.363-.828-.748-1.203-1.15l-1.02-1.432-.904-1.845-.34-3.053.83-2.41 1.47-1.133 3.618-1.736h4.146l2.297.79 3.432 1.624 2.372 1.546c.377-.2.758-.42 1.148-.66.39-.238.773-.46 1.15-.66.1-.102.164-.176.188-.226l10.365-8.366h-.037c.25-.428.496-.843.734-1.244.238-.4.46-.805.66-1.207l.602-.64 5.164-4.483.754-.492h1.584l.074.906-.68.604h.04l-3.32 3.39c-.2.352-.4.723-.6 1.114-.204.392-.378.758-.526 1.11l-1.096 1.205c-.148.432-.307.856-.47 1.283-.165.428-.32.855-.472 1.28l-1.77 2.638c-.075.18-.155.353-.245.528-.09.177-.16.353-.208.53l-6.068 9.87c-.127.378-.258.76-.398 1.15-.137.39-.27.76-.395 1.112l-1.28 2.64c-.05.175-.11.343-.188.507-.074.167-.137.32-.19.473l-.3.417c-.023.15-.037.313-.037.486 0 .18-.014.328-.04.453l-.638 1.206c-.05.2-.107.44-.17.717-.063.274-.12.513-.17.715l-.754.828h-.94l-.718-.564-.19-2.108z"/><path fill="#021509" d="M218.172 170.535l.525-1.282 1.47-2.3 4.526-4.896h1.277l.38.563-.34.98-1.923 2.34-4.295 4.898-2.148 1.807-.678.037 1.206-2.147zm11.558 16.01l.227-.527c.05-.15.074-.238.074-.262l1.47-1.62c.428-.353.893-.7 1.395-1.036.502-.342.967-.684 1.395-1.035l.566-.153.754.153.076.75c-.025.102-.057.21-.096.322-.037.113-.068.22-.094.317l-.79.83-2.3 1.472-2.148.98c-.127.05-.25.093-.375.132-.127.04-.242.083-.34.132l.187-.454zm73.756.418l-.527 1.994.34 2.338 1.468 1.66h1.09l1.057.15 1.58-.38 2.152-.788 4.557-1.433.49-.944-.186-.297-2.79 1.014-4.18 1.28-.646.152h-.902l-.678-.49-.564-2.867.318-1.205c.11-.426.234-.828.357-1.203l1.887-2.452 3.164-1.546c.125 0 .277-.01.453-.036.176-.02.326-.038.453-.038-.025.202-.043.403-.057.603-.014.203-.02.404-.02.604l-.603.98.53.642h.677l1.242-.945.903-3.655-1.43-.604h-1.62l-1.583.68-2.225 1.32-2.678 2.448-4.033 3.28-2.977 2.16-6.822 2.363-.98-.154.263-1.543.342-.906 2.826-4.52 2.223-3.62-1.81-.677-.87.036-2.03 2.602-1.848 1.81-3.922 3.09-3.19 1.442-.01-.01-5.542 1.732-1.242-.225-.15-.302 1.32-3.96 1.355-2.56 1.093-2.98 1.545-2.26.264-.643 1.81-2.297 1.47-.642 1.205-.98h6.56l3.015-.337h1.355l.344-.643-.077-.34h-9.234l-.413-.336.11-1.396 1.923-4.106 1.77-1.963.23-.978-.456-.604-2.412 1.547-3.768 4.824-1.62 2.56-6.67.303-.378.68.15.338 4.52.344.456.637-1.13 1.775c-.104.15-.21.305-.32.468-.114.166-.22.32-.32.472l-1.546 1.96-8.82 7.577-3.506 2.107c-.777.352-1.586.725-2.43 1.112-.842.392-1.664.762-2.47 1.11h-1.28c.076-.374.168-.765.28-1.167.114-.4.21-.78.286-1.13l2.11-4.183.187-2.037-.715-.98h-1.96l-3.054 1.358c-.754.627-1.55 1.28-2.393 1.957-.84.68-1.663 1.335-2.466 1.96l-.096-.167c-.035-.064-.068-.122-.092-.172l.338-2.634-.72-.98h-3.58l-5.386 2.71-5.158 3.692-2.793 1.32-.756.453-2.263.455c-.2-.026-.412-.076-.64-.153-.226-.074-.437-.138-.638-.187l-.57-.265c-.048-.176-.073-.352-.073-.527s-.014-.365-.04-.564l.267-1.66 2.602-1.245 3.355-1.77 1.394-1.622.604-2.374-.756-.944-.904-.375-.754.153-2.904 1.204-4.37 4.146-1.28 2.226-2.713 1.656-4.02 2.04c-.052-.025-.108-.095-.17-.207-.065-.115-.132-.172-.208-.172l-.644-2.3.492-1.843 1.28-2.828v-1.47l-.677-.267-1.282-.26-3.053.828-4.71 3.428-.68.568.716-2.074 2.038-3.13c.025-.073.037-.175.037-.3 0-.13.01-.238.04-.34l.94-1.923.828-1.317.943-2.074 3.73-3.242 1.32-1.355 4.52-4.903 2.83-4.028-.042-.568-.752-1.282h-2.336l-1.434.68-2.863 2.865-1.622 1.695-2.525 3.24-1.885 3.242-.754 1.28-2.225 3.923-9.007 8.097-7.047 5.28-.943.15-.148-.304 1.318-3.957 1.354-2.56 1.096-2.98 1.543-2.258.268-.644 1.807-2.3 1.472-.64 1.203-.978h5.055l.94-.3.792-.038.338-.64-.074-.343h-5.088l-.416-.337-.828-.268 2.486-5.238 1.395-2.035.264-.98-.905-.524-1.656 1.62-3.356 4.747-1.62 2.562-8.782.303-.375.68.15.335 6.633.342.453.643-1.133 1.77c-.1.148-.207.307-.32.47l-.32.47-1.547 1.962-8.44 7.535-4.458 2.145-5.014 1.885-.448-.754 2.148-5.805 1.734-3.352-.492-.643h-1.17l-7.686 7.2-3.205 2.487h-.753c.13-.505.252-.994.38-1.47.124-.478.25-.968.374-1.47l3.808-5.844h-2.79l-.942 2.186-2.184 3.543-1.207 1.734-.64 2.337.714.94 1.243.68 3.695-1.62 5.465-5.354c.023.054.05.103.074.153.025.05.063.098.115.15l-2.002 3.54.305 1.358.904 1.62h1.694l5.617-2.298 7.51-4.063c.478-.48.95-.96 1.413-1.453.467-.49.924-.974 1.377-1.45h.604l-.303.98-3.24 6.64.532 1.657.826.226 2.94-.34 9.27-7.12 3.43-2.678.564-.716 1.36-.945c.1.077.192.18.282.304.086.128.168.224.246.302l-.79 1.168-2.866 5.764-.15.605-1.207 1.618-1.205 1.62.564.68h1.02l2.98-2.903.41-.34.226-.264.94-1.278.907-1.02 2.485-1.693 2.717-.908.338.228c.074.127.15.264.225.414.074.15.152.288.225.415l-.225.527-.34 1.81-.45 1.733.526 1.885.565.828.682.376.826-.115 4.89-2.19 2.524-1.507.15 1.846 1.055 1.47 2.188.755 2.035-.34 3.842-1.32 1.63-.896 1.84-1.173c.626-.478 1.255-.942 1.884-1.395l3.015-1.617c.127-.13.27-.24.434-.343.163-.1.304-.2.433-.303.477-.226.957-.45 1.434-.677.477-.225.967-.438 1.47-.64h1.958c.078.1.152.206.227.32s.152.23.227.356c-.103.304-.19.622-.265.964-.076.336-.162.658-.262.96l-.492.64c-.05.15-.095.307-.13.473-.037.162-.082.32-.135.47l-1.467 1.923-.83 2.035 1.957.68c.28-.377.55-.768.814-1.17.26-.4.528-.78.808-1.13l1.242-.98c.154-.326.314-.66.49-1 .176-.34.354-.658.527-.96l4.037-3.278c.55-.277 1.11-.55 1.672-.812.568-.265 1.127-.532 1.682-.81-.027.15-.045.308-.06.468-.013.166-.017.323-.017.474l-1.62 3.618c-.027.1-.053.207-.074.32-.025.112-.05.204-.076.28l-.49.643-.04.34-1.657 2.602-.3 1.054 3.276.64 2.94-1.015 3.402-2.042 7.45-4.368c.48-.477.95-.96 1.413-1.45.47-.49.924-.974 1.375-1.45h.605l-.3.98-3.245 6.634.53 1.657 1.618.68 2.902-.795 4.928-1.966 3.93-1.197.72-.718c.245-.124.522-.287.825-.49.3-.2.59-.362.867-.49.074.052.154.083.244.098.088.01.17.042.244.094l-1.506 3.392.336 1.542.605.567 2.523.036 2.113-.64 5.32-2.168 5.196-3.565z"/><path fill="none" stroke="#021509" stroke-width=".663" stroke-linecap="round" stroke-linejoin="round" stroke-miterlimit="10" d="M218.172 170.535l.525-1.282 1.47-2.3 4.526-4.896h1.277l.38.563-.34.98-1.923 2.34-4.295 4.898-2.148 1.807-.678.037 1.206-2.147zm11.558 16.01l.227-.527c.05-.15.074-.238.074-.262l1.47-1.62c.428-.353.893-.7 1.395-1.036.502-.342.967-.684 1.395-1.035l.566-.153.754.153.076.75c-.025.102-.057.21-.096.322-.037.113-.068.22-.094.317l-.79.83-2.3 1.472-2.148.98c-.127.05-.25.093-.375.132-.127.04-.242.083-.34.132l.187-.454zm73.756.418l-.527 1.994.34 2.338 1.468 1.66h1.09l1.057.15 1.58-.38 2.152-.788 4.557-1.433.49-.944-.186-.297-2.79 1.014-4.18 1.28-.646.152h-.902l-.678-.49-.564-2.867.318-1.205c.11-.426.234-.828.357-1.203l1.887-2.452 3.164-1.546c.125 0 .277-.01.453-.036.176-.02.326-.038.453-.038-.025.202-.043.403-.057.603-.014.203-.02.404-.02.604l-.603.98.53.642h.677l1.242-.945.903-3.655-1.43-.604h-1.62l-1.583.68-2.225 1.32-2.678 2.448-4.033 3.28-2.977 2.16-6.822 2.363-.98-.154.263-1.543.342-.906 2.826-4.52 2.223-3.62-1.81-.677-.87.036-2.03 2.602-1.848 1.81-3.922 3.09-3.19 1.442-.01-.01-5.542 1.732-1.242-.225-.15-.302 1.32-3.96 1.355-2.56 1.093-2.98 1.545-2.26.264-.643 1.81-2.297 1.47-.642 1.205-.98h6.56l3.015-.337h1.355l.344-.643-.077-.34h-9.234l-.413-.336.11-1.396 1.923-4.106 1.77-1.963.23-.978-.456-.604-2.412 1.547-3.768 4.824-1.62 2.56-6.67.303-.378.68.15.338 4.52.344.456.637-1.13 1.775c-.104.15-.21.305-.32.468-.114.166-.22.32-.32.472l-1.546 1.96-8.82 7.577-3.506 2.107c-.777.352-1.586.725-2.43 1.112-.842.392-1.664.762-2.47 1.11h-1.28c.076-.374.168-.765.28-1.167.114-.4.21-.78.286-1.13l2.11-4.183.187-2.037-.715-.98h-1.96l-3.054 1.358c-.754.627-1.55 1.28-2.393 1.957-.84.68-1.663 1.335-2.466 1.96l-.096-.167c-.035-.064-.068-.122-.092-.172l.338-2.634-.72-.98h-3.58l-5.386 2.71-5.158 3.692-2.793 1.32-.756.453-2.263.455c-.2-.026-.412-.076-.64-.153-.226-.074-.437-.138-.638-.187l-.57-.265c-.048-.176-.073-.352-.073-.527s-.014-.365-.04-.564l.267-1.66 2.602-1.245 3.355-1.77 1.394-1.622.604-2.374-.756-.944-.904-.375-.754.153-2.904 1.204-4.37 4.146-1.28 2.226-2.713 1.656-4.02 2.04c-.052-.025-.108-.095-.17-.207-.065-.115-.132-.172-.208-.172l-.644-2.3.492-1.843 1.28-2.828v-1.47l-.677-.267-1.282-.26-3.053.828-4.71 3.428-.68.568.716-2.074 2.038-3.13c.025-.073.037-.175.037-.3 0-.13.01-.238.04-.34l.94-1.923.828-1.317.943-2.074 3.73-3.242 1.32-1.355 4.52-4.903 2.83-4.028-.042-.568-.752-1.282h-2.336l-1.434.68-2.863 2.865-1.622 1.695-2.525 3.24-1.885 3.242-.754 1.28-2.225 3.923-9.007 8.097-7.047 5.28-.943.15-.148-.304 1.318-3.957 1.354-2.56 1.096-2.98 1.543-2.258.268-.644 1.807-2.3 1.472-.64 1.203-.978h5.055l.94-.3.792-.038.338-.64-.074-.343h-5.088l-.416-.337-.828-.268 2.486-5.238 1.395-2.035.264-.98-.905-.524-1.656 1.62-3.356 4.747-1.62 2.562-8.782.303-.375.68.15.335 6.633.342.453.643-1.133 1.77c-.1.148-.207.307-.32.47l-.32.47-1.547 1.962-8.44 7.535-4.458 2.145-5.014 1.885-.448-.754 2.148-5.805 1.734-3.352-.492-.643h-1.17l-7.686 7.2-3.205 2.487h-.753c.13-.505.252-.994.38-1.47.124-.478.25-.968.374-1.47l3.808-5.844h-2.79l-.942 2.186-2.184 3.543-1.207 1.734-.64 2.337.714.94 1.243.68 3.695-1.62 5.465-5.354c.023.054.05.103.074.153.025.05.063.098.115.15l-2.002 3.54.305 1.358.904 1.62h1.694l5.617-2.298 7.51-4.063c.478-.48.95-.96 1.413-1.453.467-.49.924-.974 1.377-1.45h.604l-.303.98-3.24 6.64.532 1.657.826.226 2.94-.34 9.27-7.12 3.43-2.678.564-.716 1.36-.945c.1.077.192.18.282.304.086.128.168.224.246.302l-.79 1.168-2.866 5.764-.15.605-1.207 1.618-1.205 1.62.564.68h1.02l2.98-2.903.41-.34.226-.264.94-1.278.907-1.02 2.485-1.693 2.717-.908.338.228c.074.127.15.264.225.414.074.15.152.288.225.415l-.225.527-.34 1.81-.45 1.733.526 1.885.565.828.682.376.826-.115 4.89-2.19 2.524-1.507.15 1.846 1.055 1.47 2.188.755 2.035-.34 3.842-1.32 1.63-.896 1.84-1.173c.626-.478 1.255-.942 1.884-1.395l3.015-1.617c.127-.13.27-.24.434-.343.163-.1.304-.2.433-.303.477-.226.957-.45 1.434-.677.477-.225.967-.438 1.47-.64h1.958c.078.1.152.206.227.32s.152.23.227.356c-.103.304-.19.622-.265.964-.076.336-.162.658-.262.96l-.492.64c-.05.15-.095.307-.13.473-.037.162-.082.32-.135.47l-1.467 1.923-.83 2.035 1.957.68c.28-.377.55-.768.814-1.17.26-.4.528-.78.808-1.13l1.242-.98c.154-.326.314-.66.49-1 .176-.34.354-.658.527-.96l4.037-3.278c.55-.277 1.11-.55 1.672-.812.568-.265 1.127-.532 1.682-.81-.027.15-.045.308-.06.468-.013.166-.017.323-.017.474l-1.62 3.618c-.027.1-.053.207-.074.32-.025.112-.05.204-.076.28l-.49.643-.04.34-1.657 2.602-.3 1.054 3.276.64 2.94-1.015 3.402-2.042 7.45-4.368c.48-.477.95-.96 1.413-1.45.47-.49.924-.974 1.375-1.45h.605l-.3.98-3.245 6.634.53 1.657 1.618.68 2.902-.795 4.928-1.966 3.93-1.197.72-.718c.245-.124.522-.287.825-.49.3-.2.59-.362.867-.49.074.052.154.083.244.098.088.01.17.042.244.094l-1.506 3.392.336 1.542.605.567 2.523.036 2.113-.64 5.32-2.168 5.196-3.565z"/><path fill="#021509" d="M295.982 177.314l.645.413 2.146-.074 1.885-1.473-.263-1.354-.98-.453-1.923 1.168-1.244.907"/><path fill="none" stroke="#021509" stroke-width=".663" stroke-linecap="round" stroke-linejoin="round" stroke-miterlimit="10" d="M295.982 177.314l.645.413 2.146-.074 1.885-1.473-.263-1.354-.98-.453-1.923 1.168-1.244.907z"/><path fill="#021509" d="M129.582 60.107c-2.76 9.43-5.42 18.406-7.954 26.838 5.767-8.92 14.427-20.952 25.904-33.188-5.782 2.384-11.786 4.508-17.95 6.35m217.12 49.42c-4.296 10.905-8.796 18.69-11.41 22.793 6.853-.54 11.302-2.62 13.253-6.2 2.613-4.792.38-11.895-1.842-16.593m-150.115-7.437c-2.148 0-7.498 4.248-12.146 13.367-5.154 10.11-4.926 17.178-3.363 17.975.114.058.255.086.427.086 2.564 0 7.936-5.108 12.145-13.36 5.154-10.113 4.924-17.183 3.36-17.982-.114-.056-.252-.086-.424-.086M40.165 188.467c-13.275 0-22.664-16.525-27.903-49.12-.168-1.05.52-2.047 1.56-2.263.137-.027.272-.042.406-.042.89 0 1.697.604 1.926 1.5.063.246 6.418 24.583 20.29 24.583h.002c5-.002 10.584-3.138 16.593-9.323 14.048-14.468 38.753-54.353 55.102-80.745 1.994-3.222 3.852-6.22 5.533-8.92-8.932 1.874-17.983 3.117-26.972 3.703C38.78 70.973 25.23 84.6 25.1 84.736c-.388.404-.914.618-1.448.618-.307 0-.617-.07-.903-.218-.783-.402-1.214-1.265-1.053-2.13C25.92 60.356 46.4 49.348 84.3 49.348c3.327 0 6.85.084 10.472.25 1.68.077 3.398.115 5.107.115 7.777 0 15.902-.804 24.164-2.39 6.12-10.126 10.024-16.918 10.063-16.987.365-.635 1.03-.998 1.725-.998.258 0 .52.05.77.156.927.39 1.417 1.41 1.142 2.375 0 0-1.443 5.087-3.807 13.274 8.375-2.15 32.277-9.762 59.922-31.726.364-.29.8-.432 1.237-.432.508 0 1.014.194 1.4.577.715.71.787 1.843.166 2.637-.21.268-21.115 27.162-33.465 56.492-12.512 29.712-13.775 49.41-11.584 51.628.05-.014.123-.04.22-.087.042-.02.085-.04.128-.057.307-.12 1.174-.608 2.61-2.525 20.214-26.905 35.312-40.547 44.874-40.547.13 0 .258.003.383.007 2.692.13 5.942 1.342 8.136 5.83l2.137-4.574c.328-.7 1.03-1.147 1.803-1.147h15.875c.68 0 1.315.347 1.68.92.366.575.41 1.296.122 1.912l-22.857 48.776c.004.365.23.882 1.73 1.21h.008c1.455 0 5.385-3.03 11.617-14.33l17.527-37.345c.328-.7 1.027-1.144 1.8-1.144h16.083c.688 0 1.324.353 1.688.935.238.38.336.824.29 1.257 2.593-1.26 5.91-2.266 9.9-2.266 3.745 0 6.388 1.088 7.854 3.23.326.48.57.975.748 1.474 2.71-2.325 6.902-4.74 12.615-4.74 6.705 0 10.682 1.362 12.51 4.29 2.656 4.25-.166 10.047-3.438 16.76l-.652 1.343-11.053 23.64c-2.332 5.486-1.984 6.775-1.904 6.964h.01c.043 0 .246.06.688.06 1.115-.114 3.814-4.096 5.547-8.19l20.28-43.608c.325-.702 1.028-1.15 1.802-1.15h15.875c.682 0 1.314.347 1.68.92.363.574.41 1.294.123 1.91l-21.47 45.91c-1.093 2.178-1.104 3.535-.76 4.094.323.523 1.228.6 1.735.6 5.695 0 14.92-20.932 22.332-37.753 2.14-4.855 4.352-9.877 6.514-14.53.326-.702 1.03-1.15 1.803-1.15h17.152c.767 0 1.466.442 1.796 1.136 2.48 5.228 13.514 29.83 10.223 46.626 4.35-2.408 11.202-5.39 18.49-5.39 8.147 0 19.142 3.89 25.224 22.422.268.816-.02 1.712-.71 2.222-.35.257-.765.387-1.18.387-.403 0-.806-.123-1.15-.368-10.73-7.627-20.267-11.334-29.16-11.334-8.274 0-14.505 3.288-19.513 5.93-1.333.702-2.593 1.367-3.798 1.923-5.52 2.55-10.848 3.84-15.83 3.84h-.002c-7.53 0-12.416-2.93-14.62-4.636-2.374 1.638-7.534 4.66-13.308 4.66-4.012 0-9.512-1.517-13.93-8.358-7.375 7.132-12.137 8.545-25.703 8.545-4.858 0-8.245-1.515-10.064-4.503-3.508-5.762.268-14.938 2.83-19.895l10.586-22.64c1.063-2.854 1.098-4.337.996-4.824-.104-.014-.205-.02-.307-.02-1.368 0-2.954 1.526-4.847 4.664l-21.566 46.124c-.326.7-1.03 1.147-1.8 1.147h-15.878c-.68 0-1.314-.347-1.68-.92s-.41-1.296-.122-1.912l21.947-46.936c.527-1.406.71-2.278.768-2.78-3.12.513-5.473 4.647-8.918 11.124l-18.678 40.22c-.264.572-.78.976-1.383 1.105-.184.058-.373.09-.566.09h-15.88c-.673 0-1.302-.343-1.67-.91-.286-.444-.38-.978-.274-1.484-2.145 1.382-4.63 2.35-7.387 2.35-3.58 0-5.572-1.567-6.613-2.88-.8-1.015-1.305-2.184-1.607-3.37-2.953 3.298-7.488 6.25-13.77 6.25-10.16 0-14.164-4.942-16.004-9.835-2.352 2.262-6.19 5.578-10.586 7.92-2.334 1.24-4.473 1.87-6.355 1.87-2.633 0-4.805-1.203-6.28-3.482-5.882-9.07-.235-37.247 14.06-71.72-9.672 10.596-27.515 32.35-45.698 65.878-.354.652-1.032 1.04-1.748 1.04-.167 0-.335-.02-.503-.064-.885-.232-1.498-1.037-1.486-1.952.004-.27.43-22.22 8.43-51.038-14.564 26.87-39.667 72.725-47.046 83.277-3.73 5.336-13.627 17.747-24.925 17.747"/><path fill="#021509" d="M339.176 129.756c2.137-3.67 4.805-8.702 7.502-14.957 1.15 3.587 1.672 7.534.115 10.378-1.36 2.488-4.295 3.858-7.617 4.578m-157.006 1.537c-.326-2.06.3-7.59 4.043-14.934 3.742-7.337 7.85-11.094 9.71-12.04.325 2.06-.302 7.592-4.046 14.935-3.742 7.34-7.85 11.094-9.707 12.038M131.188 61.7c3.123-.953 6.205-1.977 9.238-3.07-5.076 5.815-9.482 11.446-13.226 16.597 1.302-4.39 2.632-8.903 3.988-13.527m63.908-50.703c-.87 0-1.746.285-2.473.864-24.254 19.27-45.566 27.36-55.79 30.413 1.757-6.095 2.812-9.812 2.825-9.86.55-1.933-.43-3.972-2.283-4.752-.502-.21-1.025-.312-1.54-.312-1.39 0-2.724.73-3.452 1.998-.04.067-3.74 6.507-9.58 16.188-7.84 1.454-15.543 2.19-22.925 2.19-1.677 0-3.363-.037-5.016-.113-3.65-.166-7.205-.25-10.562-.25-39.015 0-60.133 11.54-64.562 35.282-.324 1.74.54 3.483 2.12 4.28.568.287 1.18.427 1.79.427 1.077 0 2.14-.44 2.91-1.268.094-.093 13.466-13.197 60.27-16.257 7.57-.494 15.187-1.45 22.737-2.85l-3.12 5.035c-15.31 24.72-40.938 66.093-54.837 80.407-5.62 5.786-10.723 8.72-15.166 8.72-12.17 0-18.305-22.854-18.364-23.083-.455-1.795-2.067-3-3.852-3-.267 0-.538.026-.81.083-2.084.43-3.46 2.425-3.12 4.526 5.418 33.704 15.465 50.794 29.865 50.794 12.235 0 22.648-13.006 26.558-18.598 6.28-8.987 25.246-43.24 39.77-69.868-4.476 20.987-4.758 35.552-4.77 36.46-.027 1.83 1.198 3.442 2.97 3.904.335.088.673.13 1.007.13 1.433 0 2.788-.776 3.496-2.08 14.055-25.918 27.897-44.75 37.866-56.784-9.686 25.794-16.207 52.635-9.646 62.76 1.834 2.83 4.658 4.388 7.95 4.388 2.243 0 4.628-.69 7.29-2.105 3.46-1.843 6.584-4.26 8.963-6.345 2.31 4.15 6.945 8.494 16.693 8.494 5.8 0 10.047-2.133 13.068-4.73.223.378.47.745.75 1.097 1.313 1.658 3.797 3.634 8.172 3.634 2.273 0 4.363-.55 6.25-1.422.75.922 1.88 1.466 3.084 1.466h15.877c.416 0 .822-.065 1.21-.19 1.104-.306 2.046-1.083 2.544-2.156l.917-1.97c-.076.86.13 1.733.605 2.48.73 1.148 1.996 1.844 3.355 1.844h15.877c1.545 0 2.95-.894 3.604-2.293l9.02-19.292c-1.89 5.17-3.03 11.445-.213 16.075 1.516 2.49 4.787 5.46 11.762 5.46 13.045 0 18.486-1.363 25.393-7.532 4.64 5.954 10.127 7.343 14.24 7.343 5.45 0 10.37-2.443 13.264-4.248 2.805 1.867 7.72 4.225 14.664 4.225 5.273 0 10.88-1.353 16.666-4.024 1.254-.58 2.535-1.255 3.893-1.97 5.064-2.673 10.803-5.7 18.586-5.7 8.465 0 17.627 3.586 28.006 10.966.688.49 1.497.736 2.302.736.83 0 1.66-.26 2.36-.776 1.382-1.02 1.956-2.81 1.42-4.442-6.456-19.664-18.308-23.79-27.114-23.79-5.96 0-11.627 1.877-16.002 3.897 1.332-16.41-7.64-37.086-10.914-43.996-.66-1.388-2.057-2.274-3.594-2.274h-17.152c-1.547 0-2.953.898-3.605 2.302-2.17 4.67-4.388 9.702-6.53 14.567-4.12 9.348-8.38 19.016-12.318 26.107-4.97 8.95-7.486 10.243-8.072 10.43.088-.4.28-.98.658-1.737.016-.033.03-.066.05-.1l21.468-45.907c.576-1.232.482-2.673-.248-3.82-.73-1.148-1.996-1.843-3.357-1.843h-15.874c-1.547 0-2.953.898-3.605 2.3l-4.985 10.723c.617-2.862.486-5.53-1-7.908-2.93-4.683-9.506-5.224-14.197-5.224-5.078 0-9.068 1.738-11.994 3.76-1.373-1.78-4.057-3.722-9.225-3.722-3.356 0-6.28.66-8.745 1.6-.748-.958-1.9-1.528-3.133-1.528h-16.084c-1.54 0-2.945.893-3.6 2.288l-17.53 37.342c-4.204 7.604-7.02 10.866-8.548 12.244l21.656-46.208c.578-1.23.482-2.674-.246-3.822-.73-1.148-1.996-1.844-3.357-1.844h-15.875c-1.545 0-2.95.896-3.604 2.293l-.615 1.316c-2.366-2.74-5.226-3.597-7.646-3.715-.064-.003-.13-.004-.193-.004h-.026c-.123-.003-.248-.005-.37-.005h-.005c-6.776 0-15.51 5.728-26.696 17.514-8.96 9.437-17.094 20.266-19.768 23.825-.063.085-.125.166-.184.242-.324-6.424 2.213-23.442 12.232-47.233 12.24-29.07 32.99-55.773 33.197-56.04 1.243-1.587 1.1-3.853-.33-5.272-.773-.767-1.787-1.155-2.804-1.155M331.45 134.452c34.058 0 14.923-29.675 14.923-29.675-6.812 18.812-14.922 29.675-14.922 29.675m-149.944 1.055c3.73 0 9.58-5.943 13.916-14.445 4.898-9.612 6.016-18.857 2.494-20.656-.402-.205-.848-.304-1.328-.304-3.727 0-9.578 5.944-13.92 14.45-4.898 9.612-6.014 18.857-2.492 20.65.402.207.847.305 1.33.305M114.88 102.34s13.916-28.1 41.48-54.71c-6.907 3.348-16.522 7.404-28.382 10.878-3.717 12.702-8.358 28.37-13.098 43.833m80.218-87.366s-21.127 27.014-33.73 56.945c-12.57 29.848-15.416 54.405-9.832 54.405.354 0 .74-.1 1.16-.3.963-.38 2.105-1.36 3.47-3.182 7.21-9.598 30.288-39.756 43.282-39.752.104 0 .207.003.31.007h.093c3.605.176 6.388 2.794 7.767 8.996l1.426-2.762 2.865-6.123h15.875l-23 49.08c-.156 1.005-.012 2.98 3.25 3.693.174.04.354.057.537.057 4.762 0 11.752-12.65 13.254-15.37l17.584-37.46h16.084l-3.146 6.43s5.36-6.502 15.023-6.502c9.655 0 6.554 7.974 6.554 7.974s4.88-8.013 14.664-8.013c16.87 0 11.725 9.012 6.63 19.54L284.15 126.3c-3.053 7.178-2.846 9.856.596 9.856 3.406 0 7.38-9.405 7.38-9.405l20.25-43.543h15.874l-21.467 45.908c-2.293 4.568-1.035 7.528 2.775 7.528 8.756 0 19.947-30.408 30.648-53.436h17.152c2.72 5.74 15.764 34.843 8.492 50.352 0 0 10.584-7.98 22.018-7.98 8.73 0 17.95 4.65 23.334 21.053-12.445-8.848-22.314-11.702-30.31-11.702-11.003 0-18.448 5.41-24.144 8.037-5.87 2.708-10.87 3.657-15 3.657-9.656 0-14.523-5.196-14.523-5.196s-6.285 5.22-13.404 5.22c-4.653 0-9.663-2.23-13.51-9.6-8.058 8.278-11.856 9.787-26.122 9.787-15.45 0-7.975-16.643-5.465-21.495l10.652-22.784c.934-2.486 2.256-7.007-.283-7.516-.29-.058-.576-.087-.86-.087-2.286 0-4.32 1.9-6.608 5.718l-21.607 46.217H234.14l21.98-47.005c.936-2.47 1.707-5.596-.402-5.596-4.773 0-7.652 5.306-11.338 12.234l-18.725 40.315h-.125l-.02.044H209.63l4.87-10.804s-5.855 10.76-14.204 10.76c-8.896 0-6.254-11.22-6.254-11.22s-3.906 11.22-15.736 11.22c-10.867 0-13.787-6.07-15.053-11.667 0 0-5.582 6.313-12.473 9.982-2.082 1.108-3.885 1.64-5.422 1.64-12.57 0-6.996-35.665 13.865-82.3 0 0-26.227 23.668-53.53 74.015 0 0 .477-32.985 15.317-71.71 0 0-47.132 87.877-57.552 102.782-5.666 8.102-14.442 16.898-23.298 16.898-10.01 0-20.12-11.246-25.938-47.448 0 0 6.61 26.084 22.22 26.084 5.04 0 11.022-2.726 18.02-9.927 16.892-17.396 49.18-71.398 63.415-94.02-9.41 2.213-19.9 3.944-31.31 4.69C36.947 69.098 23.65 83.37 23.65 83.37 27.805 61.1 48.27 51.337 84.3 51.337c3.327 0 6.79.083 10.38.248 1.743.08 3.477.117 5.198.117 8.873 0 17.442-1.014 25.412-2.595 6.467-10.685 10.542-17.78 10.542-17.78s-1.83 6.45-4.742 16.506c0 .002 28.848-4.92 64.008-32.856"/><path fill="#021509" d="M323.44 80.224c-4.878 0-8.845-3.372-8.845-7.516 0-4.147 3.967-7.52 8.844-7.52 4.874 0 8.84 3.373 8.84 7.52 0 4.144-3.966 7.516-8.84 7.516"/><path fill="#021509" d="M323.44 63.2c-5.976 0-10.833 4.265-10.833 9.508 0 5.24 4.857 9.505 10.832 9.505 5.97 0 10.83-4.264 10.83-9.505 0-5.243-4.86-9.51-10.83-9.51m0 3.98c3.784 0 6.85 2.476 6.85 5.53 0 3.052-3.065 5.528-6.85 5.528s-6.856-2.476-6.856-5.528c0-3.054 3.07-5.53 6.855-5.53"/><path fill="#021509" d="M332.734 83.168c-.717-.005-1.375-.396-1.725-1.02-.35-.627-.335-1.39.038-2.003 6.625-10.88 7.844-21.108 7.855-21.21.082-.738.568-1.368 1.262-1.634.232-.088.473-.13.713-.13.48 0 .95.17 1.32.5 5.557 4.923 7.994 11.698 8.094 11.984.21.59.13 1.242-.22 1.763-7.72 11.617-16.935 11.75-17.32 11.75h-.018z"/><path fill="#021509" d="M340.88 55.18c-.48 0-.964.087-1.427.265-1.385.53-2.355 1.787-2.525 3.258-.012.1-1.232 9.985-7.578 20.408-.742 1.222-.773 2.748-.08 3.998s2.004 2.033 3.432 2.05h.002c1.14 0 10.865-.36 19.027-12.64.694-1.042.855-2.348.44-3.527-.108-.304-2.716-7.548-8.65-12.81-.743-.654-1.686-1-2.64-1m0 3.978c5.235 4.64 7.538 11.158 7.538 11.158-7.18 10.8-15.475 10.863-15.666 10.863h-.004c6.93-11.38 8.13-22.022 8.13-22.022"/><path fill="#021509" d="M123.173 53.697c-2.763 9.432-5.422 18.406-7.954 26.837 5.765-8.92 14.424-20.95 25.9-33.185-5.78 2.38-11.784 4.505-17.947 6.347m217.114 49.437c-4.295 10.896-8.79 18.676-11.404 22.777 6.848-.54 11.3-2.617 13.25-6.192 2.765-5.064.213-12.265-1.846-16.584M190.18 95.68c-2.15 0-7.498 4.248-12.15 13.367-5.15 10.11-4.922 17.178-3.36 17.976.114.058.255.087.427.087 2.563 0 7.936-5.11 12.145-13.363 5.156-10.112 4.926-17.182 3.36-17.98-.114-.058-.252-.087-.422-.087M33.757 182.057c-13.276 0-22.665-16.527-27.904-49.122-.17-1.05.518-2.047 1.56-2.263.137-.028.27-.042.405-.042.89 0 1.698.603 1.926 1.5.063.245 6.418 24.583 20.29 24.583 5.003 0 10.586-3.138 16.595-9.323 14.044-14.464 38.743-54.338 55.088-80.723 2-3.23 3.86-6.235 5.547-8.94-8.933 1.873-17.983 3.115-26.972 3.702C32.368 64.56 18.82 78.187 18.688 78.324c-.386.404-.913.618-1.446.618-.308 0-.616-.07-.902-.218-.783-.402-1.214-1.265-1.053-2.13C19.51 53.947 39.99 42.937 77.89 42.937c3.328 0 6.852.084 10.474.25 1.682.077 3.4.115 5.107.115 7.78 0 15.905-.804 24.167-2.39 6.118-10.126 10.022-16.918 10.063-16.987.364-.635 1.032-.998 1.726-.998.26 0 .52.05.77.156.93.39 1.417 1.41 1.144 2.375 0 0-1.446 5.088-3.81 13.275 8.374-2.15 32.277-9.762 59.92-31.726.364-.29.802-.432 1.237-.432.51 0 1.016.194 1.402.577.714.71.786 1.843.165 2.636-.21.27-21.113 27.162-33.463 56.49-12.512 29.71-13.777 49.41-11.586 51.63.05-.015.12-.04.22-.087.044-.02.085-.038.13-.056.305-.12 1.172-.61 2.61-2.525C168.38 88.332 183.477 74.69 193.04 74.69c.127 0 .256.003.383.007 2.69.128 5.943 1.34 8.137 5.828l2.137-4.573c.326-.7 1.03-1.147 1.803-1.147h15.875c.678 0 1.31.348 1.678.922.365.574.41 1.295.123 1.91l-22.86 48.776c.005.365.23.88 1.733 1.21h.007c1.457 0 5.385-3.03 11.617-14.328l17.523-37.346c.328-.698 1.03-1.144 1.8-1.144h16.085c.686 0 1.322.353 1.688.936.238.38.336.824.29 1.26 2.59-1.263 5.91-2.27 9.9-2.27 3.745 0 6.39 1.09 7.855 3.232.328.478.572.974.75 1.473 2.71-2.326 6.902-4.742 12.615-4.742 6.705 0 10.68 1.363 12.51 4.29 2.656 4.25-.168 10.048-3.438 16.76l-.652 1.344-11.055 23.642c-2.33 5.48-1.986 6.772-1.902 6.96h.008c.042 0 .247.062.69.062 1.116-.114 3.817-4.094 5.548-8.188l20.277-43.61c.326-.7 1.03-1.15 1.803-1.15h15.877c.68 0 1.313.348 1.678.92.365.575.412 1.295.123 1.91l-21.47 45.908c-1.09 2.18-1.103 3.538-.76 4.096.323.523 1.228.6 1.735.6 5.698 0 14.92-20.933 22.333-37.754 2.14-4.856 4.354-9.876 6.516-14.53.325-.7 1.028-1.15 1.802-1.15h17.15c.768 0 1.47.443 1.8 1.137 2.476 5.228 13.513 29.83 10.222 46.625 4.348-2.408 11.203-5.39 18.49-5.39 8.148 0 19.14 3.89 25.223 22.422.268.815-.018 1.71-.71 2.22-.35.26-.763.388-1.18.388-.403 0-.806-.122-1.15-.367-10.728-7.626-20.267-11.333-29.16-11.333-8.274 0-14.507 3.288-19.515 5.93-1.332.704-2.59 1.367-3.793 1.924-5.526 2.547-10.853 3.84-15.833 3.84h-.002c-7.53 0-12.416-2.93-14.623-4.637-2.37 1.637-7.53 4.66-13.305 4.66-4.012 0-9.512-1.52-13.932-8.36-7.373 7.133-12.135 8.545-25.703 8.545-4.857 0-8.244-1.514-10.063-4.503-3.507-5.762.267-14.938 2.83-19.896l10.585-22.64c1.063-2.85 1.098-4.334.998-4.822-.104-.014-.205-.02-.307-.02-1.37 0-2.957 1.526-4.85 4.665l-21.566 46.12c-.326.7-1.03 1.147-1.8 1.147h-15.876c-.68 0-1.313-.347-1.678-.92-.367-.574-.412-1.295-.123-1.91l21.947-46.936c.525-1.406.71-2.277.764-2.78-3.117.514-5.47 4.647-8.914 11.125l-18.678 40.218c-.266.574-.78.978-1.385 1.107-.182.058-.37.09-.566.09h-15.876c-.674 0-1.303-.342-1.67-.91-.287-.444-.38-.978-.277-1.483-2.145 1.38-4.63 2.348-7.387 2.348-3.58 0-5.572-1.565-6.613-2.88-.8-1.012-1.305-2.18-1.605-3.368-2.953 3.298-7.49 6.248-13.77 6.248-10.16 0-14.166-4.94-16.004-9.833-2.352 2.26-6.19 5.577-10.586 7.92-2.336 1.24-4.473 1.87-6.357 1.87-2.633 0-4.805-1.204-6.28-3.482-5.88-9.072-.235-37.25 14.06-71.72-9.674 10.595-27.513 32.35-45.697 65.875-.354.652-1.03 1.04-1.748 1.04-.165 0-.335-.02-.503-.064-.886-.233-1.5-1.038-1.485-1.954.004-.27.427-22.216 8.427-51.034-14.564 26.87-39.667 72.722-47.044 83.277-3.734 5.335-13.63 17.747-24.93 17.747"/><path fill="#021509" d="M332.768 123.347c2.137-3.67 4.803-8.702 7.502-14.957 1.148 3.588 1.672 7.536.115 10.38-1.362 2.486-4.295 3.857-7.617 4.577m-157.008 1.537c-.326-2.06.3-7.59 4.04-14.935 3.745-7.337 7.853-11.093 9.712-12.04.328 2.06-.3 7.592-4.043 14.935-3.745 7.34-7.853 11.095-9.71 12.04M124.78 55.29c3.122-.952 6.205-1.976 9.234-3.07-5.073 5.813-9.48 11.446-13.222 16.595 1.3-4.39 2.63-8.9 3.987-13.525m63.906-50.704c-.87 0-1.746.285-2.473.864-24.254 19.27-45.564 27.36-55.787 30.412 1.754-6.095 2.81-9.812 2.824-9.86.55-1.933-.43-3.97-2.28-4.75-.503-.214-1.027-.315-1.544-.315-1.387 0-2.722.728-3.45 1.998-.038.067-3.74 6.507-9.582 16.188-7.84 1.454-15.543 2.19-22.924 2.19-1.677 0-3.364-.037-5.016-.113-3.65-.167-7.204-.252-10.563-.252-39.013 0-60.13 11.54-64.56 35.283-.323 1.74.54 3.485 2.12 4.282.568.286 1.182.426 1.79.426 1.08 0 2.14-.44 2.91-1.266.095-.094 13.466-13.198 60.272-16.258 7.57-.494 15.185-1.45 22.736-2.85l-3.133 5.056c-15.31 24.713-40.93 66.075-54.824 80.384-5.62 5.787-10.723 8.72-15.165 8.72-12.17 0-18.306-22.852-18.363-23.082-.455-1.795-2.07-3-3.853-3.002-.27 0-.538.028-.81.084-2.085.43-3.46 2.426-3.122 4.527 5.418 33.706 15.466 50.796 29.868 50.796 12.233 0 22.646-13.005 26.555-18.597 6.282-8.986 25.246-43.24 39.77-69.867-4.474 20.982-4.757 35.548-4.77 36.456-.026 1.83 1.2 3.442 2.97 3.904.336.088.674.13 1.008.13 1.432 0 2.788-.776 3.496-2.082 14.084-25.97 27.917-44.793 37.875-56.808-9.692 25.8-16.222 52.658-9.657 62.786 1.834 2.83 4.658 4.39 7.95 4.39 2.243 0 4.628-.69 7.288-2.105 3.462-1.844 6.587-4.26 8.966-6.347 2.307 4.15 6.943 8.494 16.693 8.494 5.798 0 10.046-2.133 13.065-4.73.223.378.473.744.75 1.096 1.313 1.658 3.795 3.634 8.172 3.634 2.273 0 4.365-.55 6.25-1.422.75.922 1.88 1.466 3.084 1.466h15.88c.416 0 .824-.065 1.21-.19 1.106-.306 2.046-1.083 2.546-2.157l.914-1.97c-.074.858.13 1.732.605 2.48.73 1.148 1.998 1.843 3.357 1.843h15.875c1.545 0 2.95-.893 3.604-2.293l9.024-19.296c-1.89 5.17-3.035 11.447-.217 16.08 1.516 2.49 4.787 5.458 11.764 5.458 13.048 0 18.485-1.363 25.394-7.53 4.64 5.952 10.13 7.343 14.24 7.343 5.45 0 10.37-2.443 13.262-4.248 2.807 1.867 7.723 4.225 14.666 4.225 5.27 0 10.88-1.353 16.666-4.022 1.252-.58 2.533-1.254 3.89-1.97 5.063-2.673 10.804-5.7 18.587-5.7 8.465 0 17.627 3.585 28.006 10.964.69.49 1.5.735 2.306.735.83 0 1.658-.26 2.36-.776 1.382-1.02 1.956-2.81 1.42-4.442-6.454-19.663-18.31-23.79-27.116-23.79-5.96 0-11.627 1.877-16 3.897 1.33-16.41-7.64-37.087-10.916-43.997-.658-1.388-2.057-2.274-3.594-2.274H333.8c-1.547 0-2.955.897-3.607 2.3-2.17 4.67-4.387 9.7-6.53 14.566-4.12 9.35-8.38 19.017-12.317 26.11-4.97 8.947-7.486 10.242-8.072 10.427.088-.4.277-.98.656-1.736.018-.033.033-.065.05-.1l21.468-45.905c.576-1.232.482-2.673-.248-3.82s-1.996-1.843-3.355-1.843h-15.877c-1.547 0-2.955.897-3.605 2.3l-4.984 10.72c.616-2.86.485-5.528-1.003-7.906-2.928-4.683-9.504-5.224-14.197-5.224-5.078 0-9.066 1.737-11.994 3.76-1.373-1.78-4.057-3.723-9.225-3.723-3.354 0-6.278.66-8.74 1.6-.75-.958-1.903-1.528-3.136-1.528H233c-1.54 0-2.945.89-3.6 2.287l-17.527 37.343c-4.21 7.61-7.025 10.868-8.55 12.245l21.653-46.21c.578-1.232.484-2.674-.246-3.822-.73-1.147-1.994-1.844-3.355-1.844H205.5c-1.543 0-2.95.894-3.604 2.292l-.613 1.317c-2.367-2.74-5.227-3.598-7.646-3.716-.064-.003-.13-.004-.193-.004h-.025c-.124-.004-.25-.006-.374-.006h-.002c-6.777 0-15.508 5.73-26.697 17.514-8.953 9.432-17.092 20.265-19.766 23.824-.063.085-.126.167-.187.244-.322-6.424 2.217-23.443 12.234-47.234 12.256-29.106 32.988-55.772 33.197-56.038 1.242-1.588 1.1-3.854-.332-5.273-.775-.765-1.79-1.154-2.806-1.154M325.04 128.043c34.058 0 14.923-29.676 14.923-29.676-6.813 18.813-14.922 29.676-14.922 29.676M175.097 129.1c3.73 0 9.58-5.944 13.916-14.45 4.9-9.61 6.018-18.856 2.494-20.654-.4-.206-.846-.304-1.328-.304-3.727 0-9.58 5.943-13.92 14.45-4.896 9.613-6.012 18.855-2.494 20.652.404.206.85.305 1.332.305M108.47 95.93s13.916-28.1 41.48-54.71c-6.905 3.348-16.52 7.404-28.38 10.878-3.718 12.702-8.36 28.37-13.1 43.832M188.69 8.564s-21.125 27.013-33.73 56.944c-12.57 29.85-15.416 54.406-9.832 54.406.352 0 .74-.1 1.16-.3.963-.38 2.105-1.362 3.47-3.182 7.212-9.597 30.286-39.754 43.284-39.75.102 0 .207 0 .307.005h.094c3.606.176 6.39 2.794 7.767 8.996l1.428-2.762 2.863-6.123h15.875l-23 49.08c-.154 1.004-.01 2.98 3.25 3.692.176.037.355.056.54.056 4.763 0 11.75-12.646 13.253-15.367l17.582-37.463h16.084l-3.146 6.43s5.363-6.502 15.023-6.502c9.657 0 6.554 7.974 6.554 7.974s4.88-8.013 14.664-8.013c16.873 0 11.725 9.012 6.63 19.54l-11.064 23.665c-3.055 7.178-2.848 9.853.594 9.853 3.408 0 7.38-9.403 7.38-9.403l20.25-43.545h15.876l-21.47 45.907c-2.29 4.57-1.034 7.528 2.778 7.528 8.754 0 19.945-30.408 30.648-53.435h17.15c2.723 5.74 15.766 34.842 8.494 50.35 0 0 10.582-7.98 22.016-7.978 8.73 0 17.95 4.65 23.336 21.052-12.447-8.848-22.316-11.7-30.31-11.7-11.003 0-18.448 5.406-24.144 8.036-5.873 2.708-10.873 3.656-15 3.656-9.658 0-14.523-5.194-14.523-5.194s-6.284 5.218-13.405 5.218c-4.654 0-9.664-2.23-13.51-9.602-8.06 8.28-11.86 9.788-26.123 9.788-15.45 0-7.977-16.643-5.467-21.496l10.654-22.782c.933-2.486 2.253-7.01-.286-7.516-.29-.058-.576-.087-.86-.087-2.284 0-4.32 1.9-6.606 5.718l-21.61 46.216h-15.874l21.98-47.004c.937-2.47 1.706-5.596-.405-5.596-4.77 0-7.65 5.306-11.337 12.233l-18.723 40.314h-.127l-.02.044h-15.878l4.87-10.8s-5.855 10.756-14.204 10.756c-8.894 0-6.253-11.215-6.253-11.215s-3.906 11.214-15.734 11.214c-10.87 0-13.79-6.07-15.055-11.666 0 0-5.58 6.313-12.47 9.985-2.083 1.11-3.886 1.638-5.423 1.638-12.572 0-6.998-35.663 13.863-82.3 0 0-26.224 23.67-53.53 74.016 0 0 .477-32.984 15.318-71.708 0 0-47.133 87.874-57.553 102.783-5.665 8.104-14.44 16.898-23.295 16.898-10.012 0-20.122-11.248-25.94-47.45 0 0 6.61 26.083 22.22 26.083 5.04 0 11.02-2.723 18.02-9.926 16.892-17.396 49.18-71.397 63.414-94.02-9.408 2.214-19.898 3.945-31.308 4.69C30.537 62.69 17.24 76.96 17.24 76.96c4.154-22.27 24.62-32.034 60.65-32.034 3.327 0 6.79.083 10.38.248 1.744.08 3.478.117 5.2.117 8.872 0 17.44-1.014 25.41-2.595 6.47-10.685 10.543-17.78 10.543-17.78s-1.83 6.45-4.744 16.506c0 0 28.85-4.92 64.008-32.856"/><path fill="#021509" d="M317.03 73.814c-4.878 0-8.845-3.372-8.845-7.516 0-4.147 3.967-7.52 8.844-7.52s8.84 3.373 8.84 7.52c0 4.144-3.964 7.516-8.84 7.516"/><path fill="#021509" d="M317.03 56.79c-5.974 0-10.833 4.265-10.833 9.508 0 5.24 4.86 9.505 10.832 9.505 5.97 0 10.83-4.264 10.83-9.505 0-5.244-4.86-9.51-10.83-9.51m0 3.978c3.784 0 6.853 2.477 6.853 5.53 0 3.053-3.068 5.53-6.854 5.53s-6.855-2.478-6.855-5.53c0-3.053 3.07-5.53 6.854-5.53"/><path fill="#021509" d="M326.324 76.758c-.717-.005-1.375-.396-1.723-1.02-.35-.627-.333-1.39.04-2.003 6.598-10.836 7.842-21.112 7.854-21.214.084-.736.572-1.365 1.266-1.63.23-.088.473-.132.71-.132.48 0 .948.173 1.32.5 5.556 4.925 7.993 11.7 8.093 11.986.21.59.127 1.242-.22 1.763-7.72 11.617-16.933 11.75-17.32 11.75h-.02z"/><path fill="#021509" d="M334.47 48.77c-.48 0-.962.086-1.427.264-1.383.53-2.355 1.788-2.525 3.26-.02.166-1.252 10.02-7.576 20.407-.744 1.222-.775 2.748-.082 3.998.695 1.25 2.004 2.033 3.434 2.05h.002c1.137 0 10.865-.36 19.025-12.64.694-1.04.856-2.347.44-3.526-.11-.305-2.715-7.55-8.65-12.812-.743-.655-1.684-1-2.64-1m0 3.977c5.235 4.64 7.538 11.16 7.538 11.16-7.178 10.8-15.475 10.863-15.664 10.863h-.006c6.93-11.38 8.133-22.023 8.133-22.023"/><defs><path id="a" d="M340.104 99.906c1.93 3.426 6.947 13.56 3.197 20.44-2.427 4.455-8.134 6.814-16.972 7.02 2.12-3.107 8.32-12.822 13.776-27.46m-166.038 28.297c-2.793-1.425-2.34-9.705 2.78-19.76 4.1-8.03 9.83-14.09 13.333-14.09.378 0 .724.08 1.024.233 2.795 1.426 2.342 9.708-2.783 19.764-4.095 8.03-9.823 14.086-13.325 14.086-.38 0-.728-.08-1.03-.233M122.104 52.63c8.567-2.524 16.823-5.597 24.606-9.152-18.442 18.48-30.443 37.357-35.73 46.502 3.453-11.36 7.185-23.89 11.123-37.35m66.17-44.585c-30.88 24.536-57.156 31.302-62.65 32.507 2.733-9.454 4.437-15.455 4.437-15.455.092-.322-.07-.663-.38-.793-.083-.034-.17-.05-.257-.05-.23 0-.452.12-.575.332-.04.07-4.08 7.097-10.382 17.515-8.544 1.678-16.952 2.53-24.997 2.53-1.73 0-3.467-.04-5.168-.12-3.602-.164-7.104-.248-10.412-.248-37.162 0-57.213 10.656-61.302 32.577-.054.288.09.577.353.71.097.05.2.073.302.073.178 0 .354-.073.483-.21.132-.14 13.803-14.125 62.48-17.307 9.957-.65 19.99-2.11 29.85-4.344-2.092 3.34-4.527 7.27-7.21 11.603-16.375 26.434-41.12 66.38-55.265 80.948-6.27 6.453-12.17 9.725-17.546 9.726h-.002c-14.907 0-21.51-25.328-21.573-25.584-.078-.3-.346-.5-.644-.5-.045 0-.09.004-.135.014-.346.07-.576.404-.52.754 5.12 31.855 14.068 48.006 26.596 48.006 10.675 0 20.227-12.014 23.838-17.182 8.472-12.118 41.503-73.007 53.344-94.954-11.758 34.69-12.31 63.185-12.314 63.492-.004.304.2.573.496.65.056.015.11.02.168.02.237 0 .464-.128.582-.345 22.168-40.873 43.844-64.333 50.96-71.48-16.233 37.113-23.078 67.93-17.046 77.235 1.236 1.91 2.977 2.878 5.168 2.878 1.664 0 3.594-.578 5.732-1.716 5.426-2.89 9.986-7.32 11.81-9.22 1.442 5.35 4.735 10.98 15.405 10.98 7.98 0 12.515-4.974 14.7-8.425-.006 1.952.338 4.31 1.715 6.048 1.248 1.576 3.123 2.376 5.572 2.376 4.557 0 8.35-2.96 10.953-5.824l-2.223 4.933c-.094.204-.074.443.047.632.123.19.332.302.557.302h15.88c.078 0 .156-.02.23-.05.225-.026.422-.17.518-.377l18.71-40.283c3.53-6.64 6.32-11.882 10.75-11.882.374 0 .47.14.513.2.147.215.534 1.17-.708 4.452l-21.98 47.003c-.096.206-.08.446.04.637.124.192.335.307.56.307h15.875c.26 0 .494-.148.602-.38L265.786 94.6c2.236-3.73 4.1-5.395 6.04-5.395.24 0 .483.025.73.073.32.065.542.22.69.49.533.96.207 3.2-.877 6.096l-10.643 22.76c-1.96 3.79-6.166 13.192-2.877 18.594 1.563 2.567 4.566 3.868 8.93 3.868 13.984 0 18.117-1.418 25.97-9.346 3.405 6.08 8 9.16 13.665 9.16 6.238 0 11.748-3.787 13.36-5.005 1.425 1.28 6.26 4.98 14.567 4.98h.002c4.787 0 9.926-1.25 15.275-3.717 1.17-.54 2.415-1.197 3.73-1.89 5.136-2.71 11.528-6.085 20.134-6.085 9.178 0 18.97 3.787 29.926 11.578.115.084.25.124.385.124.14 0 .275-.043.395-.13.23-.17.324-.468.234-.74-4.684-14.273-12.748-21.51-23.965-21.51-8.837 0-17.044 4.577-20.59 6.86 5.485-16.16-6.718-43.36-9.32-48.852-.11-.23-.343-.38-.6-.38H333.8c-.26 0-.493.15-.6.384-2.16 4.64-4.368 9.656-6.507 14.506-8.348 18.95-16.982 38.546-23.545 38.546-.96 0-2.232-.214-2.86-1.23-.712-1.152-.472-3.047.687-5.355l21.47-45.906c.095-.205.08-.445-.044-.637-.12-.19-.33-.307-.558-.307h-15.877c-.258 0-.492.15-.6.383l-20.26 43.568c-1.47 3.477-4.61 8.997-6.77 8.997-1.37 0-1.693-.485-1.797-.644-.7-1.06-.11-3.77 1.805-8.265l11.06-23.656.655-1.347c3.096-6.358 5.77-11.85 3.504-15.476-1.564-2.502-5.182-3.667-11.385-3.667-6.8 0-11.28 3.663-13.53 6.135.024-1.093-.177-2.345-.93-3.445-1.202-1.76-3.478-2.653-6.76-2.653-5.98 0-10.335 2.38-12.892 4.313l1.61-3.286c.1-.205.087-.448-.034-.642s-.333-.312-.562-.312h-16.084c-.258 0-.49.15-.6.38l-17.564 37.424c-5.266 9.548-9.887 15.024-12.672 15.024-.14 0-.27-.01-.396-.04-2.48-.54-2.875-1.832-2.75-2.855l22.96-48.988c.095-.205.08-.445-.042-.636-.123-.19-.332-.307-.56-.307h-15.874c-.26 0-.492.15-.604.382l-2.852 6.1-.63 1.22c-1.48-5-4.157-7.626-8.042-7.812l-.332-.006c-11.363 0-30.098 21.76-43.814 40.017-1.205 1.607-2.277 2.604-3.227 2.98-.324.156-.62.235-.873.235-.26 0-.652-.07-1.05-.665-2.688-4.05-.144-25.188 11.493-52.82C167.99 36.26 188.995 9.24 189.205 8.97c.208-.263.185-.64-.056-.878-.128-.128-.298-.193-.468-.193-.14 0-.287.048-.41.145"/></defs><clipPath id="b"><use xlink:href="#a" overflow="visible"/></clipPath><linearGradient id="c" gradientUnits="userSpaceOnUse" x1="-664.627" y1="856.019" x2="-663.627" y2="856.019" gradientTransform="scale(172.8297) rotate(-90 96.816 -760.397)"><stop offset="0" stop-color="#B30000"/><stop offset=".201" stop-color="#AD0000"/><stop offset=".463" stop-color="#9C0000"/><stop offset=".759" stop-color="#810000"/><stop offset="1" stop-color="#600"/></linearGradient><path clip-path="url(#b)" fill="url(#c)" d="M7.105 7.9h398.41v172.83H7.104z"/><path fill="#FFF" d="M327.61 126.657c2.513-3.81 7.74-12.468 12.6-25.158 2.138 4.123 5.72 12.643 2.507 18.533-2.192 4.013-7.266 6.236-15.106 6.624m-152.514 1.116c-.28 0-.518-.052-.73-.16-2.165-1.106-2.046-8.82 3.073-18.867 4.382-8.593 9.92-13.728 12.74-13.728.276 0 .515.05.724.16 2.17 1.106 2.05 8.822-3.072 18.87-4.38 8.59-9.916 13.725-12.736 13.725m-52.46-74.608c7.314-2.17 14.4-4.74 21.16-7.666-14.475 14.987-24.732 29.944-30.616 39.505 2.978-9.86 6.144-20.52 9.457-31.84m66.05-45.927c-.29 0-.58.095-.825.288-29.076 23.103-54.043 30.39-61.29 32.128 2.523-8.73 4.11-14.316 4.127-14.376.183-.645-.146-1.324-.76-1.584-.17-.07-.344-.104-.516-.104-.462 0-.908.243-1.15.665-.04.07-4.013 6.98-10.223 17.252-8.402 1.632-16.67 2.46-24.58 2.46-1.72 0-3.447-.04-5.138-.118-3.61-.166-7.124-.25-10.442-.25-37.53 0-57.797 10.833-61.953 33.117-.107.58.18 1.16.707 1.427.19.095.394.142.597.142.36 0 .714-.146.97-.422.13-.135 13.74-13.938 62.04-17.096 9.47-.618 19.01-1.968 28.404-4.015-1.883 3.014-4.006 6.44-6.373 10.263-16.358 26.41-41.08 66.32-55.175 80.836-6.14 6.32-11.883 9.524-17.07 9.524-14.39 0-20.87-24.832-20.934-25.083-.15-.598-.688-1-1.282-1-.09 0-.18.01-.27.027-.695.144-1.154.81-1.04 1.51 5.18 32.224 14.347 48.565 27.25 48.565 10.985 0 20.71-12.214 24.38-17.464 7.89-11.286 36.133-63.1 49.96-88.673-9.65 31.61-10.132 56.533-10.136 56.82-.01.61.4 1.148.99 1.302.11.028.224.042.335.042.478 0 .93-.26 1.166-.694C120.4 95.945 139.945 73.3 148.79 63.984c-15.28 35.827-21.526 65.343-15.563 74.543 1.348 2.08 3.328 3.18 5.725 3.18 1.773 0 3.807-.603 6.045-1.793 4.834-2.577 8.988-6.352 11.184-8.54 1.61 4.982 5.3 10.376 15.72 10.376 7.12 0 11.6-3.813 14.158-7.16.2 1.577.693 3.213 1.736 4.53 1.38 1.746 3.432 2.63 6.094 2.63 3.475 0 6.51-1.624 8.947-3.647l-.822 1.82c-.184.41-.148.887.096 1.265s.663.606 1.112.606H219.1c.156 0 .31-.027.45-.08.392-.09.728-.358.9-.732l18.71-40.282c3.79-7.125 6.313-11.49 10.14-11.498.062.28.134 1.25-.81 3.754l-21.96 46.958c-.192.41-.16.89.083 1.274.244.382.666.614 1.12.614h15.874c.516 0 .982-.298 1.2-.764l21.58-46.153c2.062-3.422 3.788-5.017 5.437-5.017.193 0 .395.02.602.063.158.033.197.083.24.162.318.572.266 2.365-.922 5.54l-10.63 22.735c-1.99 3.844-6.294 13.51-2.83 19.2 1.688 2.775 4.886 4.184 9.497 4.184 13.694 0 18.267-1.457 25.827-8.93 3.484 5.804 8.125 8.744 13.807 8.744 5.955 0 11.254-3.33 13.33-4.82 1.89 1.56 6.754 4.797 14.598 4.797 4.885 0 10.12-1.27 15.555-3.777 1.19-.55 2.438-1.208 3.764-1.907 5.07-2.676 11.386-6.008 19.825-6.008 9.035 0 18.7 3.747 29.543 11.456.23.163.498.245.768.245.277 0 .553-.088.787-.26.46-.34.652-.936.473-1.48-5.96-18.155-16.664-21.966-24.596-21.966-7.924 0-15.34 3.6-19.463 6.048 4.246-16.545-7.314-42.316-9.848-47.662-.222-.463-.687-.758-1.2-.758H333.8c-.516 0-.984.3-1.203.767-2.158 4.646-4.37 9.664-6.508 14.517-7.88 17.882-16.812 38.15-22.94 38.15-.79 0-1.83-.16-2.298-.916-.578-.934-.32-2.644.707-4.69l21.483-45.94c.193-.41.162-.892-.082-1.273-.243-.383-.665-.615-1.118-.615h-15.877c-.514 0-.984.3-1.2.767l-20.25 43.544c-1.776 4.192-4.67 8.636-6.18 8.636-.462 0-1.054-.06-1.245-.347-.314-.478-.492-2.108 1.87-7.66l11.048-23.624.646-1.33c3.184-6.536 5.934-12.18 3.47-16.12-1.696-2.713-5.493-3.978-11.948-3.978-6.115 0-10.424 2.864-12.98 5.298-.14-.78-.424-1.58-.93-2.32-1.336-1.95-3.793-2.94-7.31-2.94-4.76 0-8.526 1.468-11.214 3.06l.53-1.08c.198-.41.175-.896-.067-1.284s-.668-.624-1.125-.624h-16.084c-.514 0-.982.297-1.2.763l-17.565 37.422c-5.958 10.797-10.142 14.644-12.07 14.644-.09 0-.173-.007-.253-.025-2.19-.48-2.297-1.506-2.248-2.02l22.913-48.894c.19-.41.162-.89-.082-1.273-.24-.383-.665-.615-1.118-.615h-15.875c-.514 0-.982.298-1.2.764l-2.757 5.894c-1.645-4.314-4.338-6.586-8.035-6.766l-.158-.002c-.066-.003-.188-.006-.307-.006h-.002c-9.342 0-24.258 13.55-44.342 40.28-1.41 1.88-2.354 2.532-2.898 2.747-.03.01-.057.023-.086.036-.29.14-.48.17-.586.17-.082 0-.252 0-.496-.37-2.607-3.93.004-24.778 11.55-52.196C168.567 36.607 189.52 9.65 189.73 9.38c.416-.53.367-1.284-.11-1.757-.257-.255-.595-.385-.932-.385M325.04 128.043c34.058 0 14.923-29.676 14.923-29.676-6.813 18.813-14.922 29.676-14.922 29.676M175.097 129.1c3.73 0 9.58-5.944 13.916-14.45 4.9-9.61 6.018-18.856 2.494-20.654-.4-.206-.846-.304-1.328-.304-3.727 0-9.58 5.943-13.92 14.45-4.896 9.613-6.012 18.855-2.494 20.652.404.206.85.305 1.332.305M108.47 95.93s13.916-28.1 41.48-54.71c-6.905 3.348-16.52 7.404-28.38 10.878-3.718 12.702-8.36 28.37-13.1 43.832M188.69 8.564s-21.125 27.013-33.73 56.944c-12.57 29.85-15.416 54.406-9.832 54.406.352 0 .74-.1 1.16-.3.963-.38 2.105-1.362 3.47-3.182 7.212-9.597 30.286-39.755 43.284-39.75.102 0 .207 0 .307.005h.094c3.606.176 6.39 2.794 7.767 8.996l1.428-2.762 2.863-6.123h15.875l-23 49.08c-.154 1.004-.01 2.98 3.25 3.692.176.037.355.056.54.056 4.763 0 11.75-12.646 13.253-15.367l17.582-37.463h16.084l-3.146 6.43s5.363-6.502 15.023-6.502c9.657 0 6.554 7.974 6.554 7.974s4.88-8.013 14.664-8.013c16.873 0 11.725 9.012 6.63 19.54l-11.064 23.665c-3.055 7.178-2.848 9.853.594 9.853 3.408 0 7.38-9.403 7.38-9.403l20.25-43.545h15.876l-21.47 45.907c-2.29 4.57-1.034 7.528 2.778 7.528 8.754 0 19.945-30.408 30.648-53.435h17.15c2.723 5.74 15.766 34.842 8.494 50.35 0 0 10.582-7.98 22.016-7.978 8.73 0 17.95 4.65 23.336 21.052-12.447-8.848-22.316-11.7-30.31-11.7-11.003 0-18.448 5.406-24.144 8.036-5.873 2.708-10.873 3.656-15 3.656-9.658 0-14.523-5.194-14.523-5.194s-6.284 5.218-13.405 5.218c-4.654 0-9.664-2.23-13.51-9.602-8.06 8.28-11.86 9.788-26.123 9.788-15.45 0-7.977-16.643-5.467-21.496l10.654-22.782c.933-2.486 2.253-7.01-.286-7.516-.29-.058-.576-.087-.86-.087-2.284 0-4.32 1.9-6.606 5.718l-21.61 46.216h-15.874l21.98-47.004c.937-2.47 1.706-5.596-.405-5.596-4.77 0-7.65 5.306-11.337 12.233l-18.723 40.314h-.127l-.02.044h-15.878l4.87-10.8s-5.855 10.756-14.204 10.756c-8.894 0-6.253-11.215-6.253-11.215s-3.906 11.214-15.734 11.214c-10.87 0-13.79-6.07-15.055-11.666 0 0-5.58 6.313-12.47 9.985-2.083 1.11-3.886 1.638-5.423 1.638-12.572 0-6.998-35.663 13.863-82.3 0 0-26.224 23.67-53.53 74.016 0 0 .477-32.984 15.318-71.708 0 0-47.133 87.874-57.553 102.783-5.665 8.104-14.44 16.898-23.295 16.898-10.012 0-20.122-11.248-25.94-47.45 0 0 6.61 26.083 22.22 26.083 5.04 0 11.02-2.723 18.02-9.926 16.892-17.396 49.18-71.397 63.414-94.02-9.408 2.214-19.898 3.945-31.308 4.69C30.537 62.69 17.24 76.96 17.24 76.96c4.154-22.27 24.62-32.034 60.65-32.034 3.328 0 6.79.083 10.38.248 1.744.08 3.48.117 5.2.117 8.873 0 17.44-1.014 25.41-2.595 6.47-10.685 10.543-17.78 10.543-17.78s-1.83 6.45-4.744 16.506c0 0 28.85-4.92 64.008-32.856"/><defs><path id="d" d="M309.512 66.298c0 3.414 3.373 6.19 7.518 6.19s7.516-2.776 7.516-6.19c0-3.416-3.37-6.195-7.516-6.195s-7.518 2.78-7.518 6.195"/></defs><clipPath id="e"><use xlink:href="#d" overflow="visible"/></clipPath><linearGradient id="f" gradientUnits="userSpaceOnUse" x1="-685.745" y1="897.609" x2="-684.745" y2="897.609" gradientTransform="matrix(0 -12.3845 -12.3845 0 11433.46 -8420.12)"><stop offset="0" stop-color="#B30000"/><stop offset=".201" stop-color="#AD0000"/><stop offset=".463" stop-color="#9C0000"/><stop offset=".759" stop-color="#810000"/><stop offset="1" stop-color="#600"/></linearGradient><path clip-path="url(#e)" fill="url(#f)" d="M309.512 60.103h15.033v12.385h-15.033z"/><path fill="#FFF" d="M317.03 59.44c-4.513 0-8.18 3.076-8.18 6.857 0 3.78 3.667 6.854 8.18 6.854 4.51 0 8.18-3.074 8.18-6.853 0-3.78-3.67-6.857-8.18-6.857m0 1.326c3.784 0 6.853 2.477 6.853 5.53 0 3.053-3.068 5.53-6.854 5.53s-6.855-2.478-6.855-5.53c0-3.053 3.07-5.53 6.854-5.53"/><g><defs><path id="g" d="M334.232 52.127c-.23.09-.393.3-.422.545-.012.104-1.27 10.64-8.037 21.752-.125.204-.13.46-.014.668.114.208.335.338.573.34h.008c.362 0 8.888-.128 16.218-11.16.117-.173.145-.39.074-.587-.096-.272-2.42-6.734-7.723-11.434-.126-.11-.282-.167-.442-.167-.08 0-.16.015-.236.044"/></defs><clipPath id="h"><use xlink:href="#g" overflow="visible"/></clipPath><linearGradient id="i" gradientUnits="userSpaceOnUse" x1="-650.928" y1="829.965" x2="-649.928" y2="829.965" gradientTransform="matrix(0 23.3486 23.3486 0 -19044.338 15250.326)"><stop offset="0" stop-color="#B30000"/><stop offset=".201" stop-color="#AD0000"/><stop offset=".463" stop-color="#9C0000"/><stop offset=".759" stop-color="#810000"/><stop offset="1" stop-color="#600"/></linearGradient><path clip-path="url(#h)" fill="url(#i)" d="M325.643 52.083h17.06v23.35h-17.06z"/></g><path fill="#FFF" d="M334.47 51.42c-.16 0-.32.03-.474.088-.463.178-.787.597-.844 1.088-.012.104-1.264 10.51-7.947 21.483-.246.406-.258.915-.025 1.332.23.417.668.677 1.143.683.395 0 9.264-.13 16.79-11.455.23-.348.284-.783.147-1.176-.102-.28-2.48-6.897-7.91-11.71-.246-.218-.56-.333-.88-.333m0 1.327c5.235 4.64 7.538 11.16 7.538 11.16-7.178 10.8-15.475 10.863-15.664 10.863h-.006c6.93-11.38 8.133-22.023 8.133-22.023"/></svg>